<svg width="300" height="300" viewBox="0 0 300 300" fill="none" xmlns="http://www.w3.org/2000/svg">
<g clip-path="url(#clip0_1_2)">
<rect width="300" height="300" rx="41" fill="#121212"/>
<path d="M54.3919 36C99.3487 99.4331 132.552 136.535 112.536 169.449C96.2317 196.258 60.3862 245.648 46 264H102.945C102.945 264 126.064 181.316 156.231 127.286L95.7522 36H54.3919Z" fill="url(#paint0_linear_1_2)"/>
<path d="M66.5251 239.988C64.2892 243.048 62.1723 245.869 59.4736 249.43C59.4722 249.432 59.4708 249.434 59.4693 249.435C59.0768 249.953 58.6761 250.481 58.2672 251.019C55.5594 254.569 52.1812 259.031 47.4002 265.098L46 262.221C47.7325 262.229 49.5739 262.236 51.5364 262.242C63.3772 262.281 72.7781 262.421 78.5186 262.555C79.5892 262.58 80.6974 262.594 83.4926 262.606C85.3257 262.614 87.804 262.622 91.3805 262.633C93.2829 262.638 95.4968 262.645 98.0886 262.653C99.5722 262.658 101.201 262.661 102.945 262.664L101.659 263.64C103.922 255.702 107.19 245.037 110.33 235.346C112.658 228.148 114.943 221.395 116.722 216.286C119.335 208.784 121.955 201.589 124.922 193.81C127.642 186.692 130.649 179.074 134.319 170.345C137.138 163.647 140.072 157.217 143.208 150.757C143.607 149.935 144.009 149.113 144.414 148.293C147.221 142.606 150.197 136.848 153.571 130.717C154.282 129.425 154.979 128.178 155.663 126.969L155.689 127.645C149.938 118.848 145.002 111.468 139.604 103.398C137.212 99.8218 134.728 96.109 132.043 92.0773C127.797 85.7012 121.717 76.5182 115.614 67.2967C115.094 66.5112 114.574 65.7247 114.054 64.9402C114.052 64.9362 114.049 64.9323 114.047 64.9283C108.46 56.4871 102.977 48.2023 98.9424 42.1319C97.4803 39.9322 96.2248 38.0463 95.1335 36.4099L95.7522 36.7422C89.0937 36.7623 85.8569 36.7923 83.0512 36.8183C81.6849 36.831 80.4201 36.8428 78.9122 36.852C73.4813 36.885 65.2832 36.8789 56.9729 36.8727C56.9412 36.8727 56.9095 36.8727 56.8778 36.8727C55.4986 36.8717 54.3855 36.7588 54.392 36.6205C54.3986 36.4823 55.5223 36.371 56.9015 36.372C61.3035 36.3753 65.5988 36.3784 69.4447 36.3761C69.6441 36.2574 70.6798 36.1674 71.921 36.1684C74.7637 36.1705 82.9708 36.0957 95.7522 35.9711C95.7601 35.9711 95.772 35.9774 95.7763 35.984C96.4433 36.9697 97.1325 37.9883 97.8436 39.0391C97.2982 38.1766 96.8437 37.4525 96.4468 36.8172C96.2387 36.484 96.0527 36.1854 95.8833 35.9131C95.8598 35.877 95.7953 35.8429 95.7522 35.8426C95.3552 35.8312 95.006 35.8208 94.6857 35.8112C93.4789 35.7751 92.676 35.7513 91.2508 35.7338C87.9497 35.7139 82.7615 35.7098 77.3017 35.7057C75.9232 35.7046 74.8098 35.5919 74.8159 35.4537C74.8226 35.3155 75.9467 35.2042 77.3255 35.2052C77.3525 35.2052 77.3795 35.2052 77.4064 35.2052C82.8139 35.2092 88.1687 35.2133 91.6171 35.2345C92.4944 35.2399 93.2501 35.2463 93.8174 35.2521C94.271 35.2567 94.8373 35.263 95.1519 35.2711C95.1937 35.2722 95.2734 35.2744 95.3684 35.2777C95.37 35.2778 95.3716 35.2779 95.3731 35.278C95.4114 35.2793 95.5626 35.2845 95.7522 35.2949C95.9453 35.2961 96.2343 35.4488 96.34 35.6106C96.3774 35.6744 96.4174 35.7435 96.4575 35.8143C96.4863 35.8652 96.5489 35.9762 96.618 36.1074C96.6381 36.1398 96.6581 36.1721 96.6782 36.2045C96.9581 36.6556 97.2436 37.1158 97.5542 37.6129C98.7669 39.5541 100.704 42.6178 104.804 48.9544C108.575 54.7824 115.028 64.5831 123.114 76.7891C122.577 75.9588 122.037 75.1268 121.498 74.2957C120.142 72.2042 118.777 70.1042 117.411 68.0041C116.887 67.1996 116.371 66.406 115.845 65.5975C114.997 64.2959 114.148 62.9908 113.298 61.6864C112.724 60.8049 112.148 59.9217 111.573 59.0396C111.572 59.0376 111.571 59.0356 111.569 59.0336C110.771 57.8092 109.972 56.5816 109.166 55.3443C108.884 54.9111 108.605 54.4832 108.329 54.0584C107.228 52.3674 106.146 50.7062 104.91 48.7871C104.761 48.553 104.6 48.298 104.48 48.1075C104.352 47.9027 104.228 47.7055 104.111 47.5189C104.008 47.3542 103.911 47.197 103.817 47.0464C103.804 47.0262 103.791 47.006 103.779 46.9858C103.674 46.8172 103.573 46.6562 103.476 46.5014C103.38 46.3469 103.287 46.1981 103.195 46.0517C103.194 46.0504 103.193 46.0491 103.192 46.0478C103.096 45.8949 103.023 45.779 102.92 45.6175C102.791 45.4147 102.68 45.2407 102.544 45.0302C102.413 44.8267 102.276 44.6146 102.138 44.4007C101.999 44.1869 101.858 43.9693 101.714 43.7485C101.57 43.5276 101.423 43.3032 101.276 43.0771C101.128 42.8512 100.978 42.6224 100.828 42.3924C100.677 42.1622 100.525 41.9296 100.371 41.6959C100.019 41.1578 99.7014 40.6284 99.4906 40.225C99.28 39.8217 99.1926 39.5771 99.248 39.544C99.3035 39.511 99.4977 39.692 99.7889 40.0474C100.08 40.4029 100.444 40.9041 100.802 41.4393C100.899 41.585 100.997 41.7314 101.095 41.8785C101.153 41.9657 101.212 42.0539 101.271 42.1417C101.428 42.3776 101.587 42.616 101.747 42.8561C101.907 43.0959 102.068 43.3381 102.231 43.583C102.394 43.8287 102.559 44.0777 102.726 44.3306C102.893 44.5829 103.063 44.841 103.235 45.1035C103.403 45.3596 103.594 45.6522 103.764 45.9144C103.888 46.106 104.04 46.3425 104.167 46.54C104.3 46.7461 104.43 46.9492 104.555 47.1451C104.68 47.3415 104.801 47.5316 104.916 47.7131C104.929 47.7325 104.941 47.7518 104.954 47.7712C105.056 47.9317 105.154 48.0866 105.247 48.2329C105.352 48.3964 105.451 48.551 105.545 48.6978C105.649 48.8595 105.712 48.9574 105.79 49.0774C106.829 50.6596 108.122 52.6091 109.356 54.468C109.511 54.7016 109.665 54.9339 109.817 55.1638C110.627 56.3846 111.436 57.6028 112.245 58.8202C112.832 59.7049 113.42 60.5906 114.009 61.4776C114.876 62.7828 115.744 64.0921 116.612 65.4002C117.151 66.2126 117.68 67.0102 118.217 67.8209C119.62 69.9376 121.026 72.0619 122.433 74.1902C123.837 76.3155 125.249 78.4555 126.658 80.5988C128.062 82.734 129.518 84.9545 130.917 87.1027C131.945 88.6821 132.99 90.3074 133.955 91.8125C134.473 92.6214 134.981 93.4138 135.48 94.1947C135.482 94.1974 135.484 94.2001 135.485 94.2028C135.924 94.8882 136.357 95.5649 136.787 96.2366C137.709 97.6766 138.617 99.0898 139.529 100.501C140.438 101.91 141.347 103.311 142.266 104.72C143.178 106.118 144.108 107.538 145.031 108.942C145.96 110.354 146.874 111.737 147.837 113.19C149.103 115.1 150.363 116.995 151.658 118.939C152.943 120.87 154.24 122.815 155.54 124.765C155.995 125.446 156.45 126.13 156.906 126.813C156.908 126.816 156.909 126.819 156.911 126.821C156.913 126.825 156.915 126.828 156.918 126.831C157.062 127.052 157.08 127.458 156.95 127.687C156.225 128.996 155.501 130.325 154.781 131.671C153.664 133.76 152.594 135.815 151.509 137.946C150.444 140.039 149.377 142.182 148.33 144.33C147.287 146.467 146.215 148.708 145.168 150.927C144.229 152.916 143.29 154.938 142.391 156.908C142.153 157.429 141.916 157.951 141.679 158.473C140.555 160.957 139.493 163.36 138.461 165.754C137.43 168.146 136.424 170.54 135.427 172.972C134.432 175.396 133.448 177.849 132.469 180.342C131.492 182.831 130.534 185.319 129.582 187.838C128.635 190.343 127.695 192.875 126.761 195.433C126.238 196.867 125.688 198.382 125.174 199.804C124.652 201.25 124.128 202.707 123.625 204.119C123.42 204.694 123.219 205.26 123.016 205.83C122.718 206.671 122.425 207.502 122.14 208.315C121.657 209.692 121.205 210.994 120.748 212.325C120.297 213.637 119.871 214.898 119.469 216.105C119.044 217.382 118.696 218.445 118.295 219.69C117.314 222.704 116.675 224.645 115.999 226.716C115.861 227.137 115.722 227.565 115.578 228.008C114.767 230.5 113.932 233.082 113.156 235.506C112.333 238.073 111.555 240.524 110.773 243.011C109.986 245.513 109.198 248.045 108.448 250.48C107.653 253.061 106.934 255.422 106.163 257.991C105.526 260.115 104.855 262.377 104.281 264.373C104.121 264.931 103.526 265.391 102.945 265.387C102.573 265.385 102.202 265.383 101.833 265.381C100.354 265.374 98.7838 265.363 97.325 265.353C96.2728 265.345 95.2353 265.337 94.2184 265.329C93.8031 265.326 93.3902 265.323 92.9814 265.32C91.5717 265.309 90.2016 265.299 88.8781 265.291C87.5543 265.284 86.2732 265.278 85.0197 265.277C83.7641 265.275 82.5356 265.276 81.3065 265.281C80.0324 265.286 78.9745 265.293 77.6218 265.306C76.7408 265.315 75.8777 265.323 75.0171 265.332C73.7287 265.345 72.4496 265.358 71.1611 265.371C69.8743 265.385 68.6037 265.399 67.3266 265.413C66.916 265.418 66.4824 265.423 66.0706 265.428C64.7982 265.443 63.5402 265.458 62.2836 265.474C61.0293 265.49 59.7865 265.507 58.549 265.525C57.3062 265.543 56.0842 265.562 54.8381 265.582C52.72 265.617 50.6927 265.633 48.9174 265.644C47.9123 265.65 46.9441 265.654 46 265.658C44.4396 265.65 43.7265 264.2 44.6952 262.977C45.128 262.42 45.5722 261.846 46.0284 261.254C46.2177 261.008 46.3903 260.783 46.5752 260.542C47.3806 259.492 48.1497 258.482 48.9321 257.448C49.8692 256.209 50.8272 254.932 51.7259 253.726C52.6559 252.478 53.554 251.264 54.476 250.01C55.3779 248.783 56.2669 247.567 57.1877 246.298C58.105 245.035 59.0449 243.729 60.06 242.313C61.0902 240.877 62.1187 239.437 63.2028 237.921C64.2607 236.44 65.3633 234.898 66.4347 233.4C67.5264 231.874 68.5957 230.38 69.6765 228.87C70.7451 227.377 71.8278 225.865 72.8845 224.388C73.9454 222.905 75.0433 221.37 76.0681 219.935C77.7308 217.609 79.3785 215.294 81.0246 212.969C82.6623 210.657 84.2993 208.334 85.9259 206.013C87.5503 203.695 89.1713 201.367 90.7782 199.045C92.3895 196.716 93.9959 194.377 95.5777 192.055C95.9283 191.54 96.285 191.016 96.6353 190.499C97.8623 188.691 99.1014 186.851 100.311 185.04C100.319 185.027 100.328 185.014 100.336 185.002C101.907 182.648 103.414 180.366 104.947 178.004C105.504 177.145 106.029 176.332 106.578 175.475C107.124 174.622 107.626 173.833 108.172 172.967C108.712 172.109 109.202 171.325 109.732 170.468C110.155 169.785 110.557 169.128 110.948 168.483C111.043 168.327 111.136 168.17 111.228 168.014C111.667 167.27 112.074 166.529 112.486 165.719C112.523 165.645 112.56 165.571 112.598 165.497C113.057 164.581 113.53 163.537 113.924 162.564C114.99 159.938 115.725 157.307 116.165 154.546C116.602 151.792 116.72 148.989 116.554 146.167C116.491 145.074 116.38 143.939 116.236 142.853C116.008 141.131 115.689 139.426 115.284 137.702C114.627 134.9 113.757 132.109 112.734 129.343C111.719 126.598 110.539 123.847 109.29 121.194C108.02 118.496 106.647 115.831 105.248 113.263C103.653 110.338 102.004 107.501 100.311 104.705C98.5853 101.857 96.8167 99.0579 95.047 96.3289C93.2291 93.527 91.4148 90.805 89.5638 88.0742C87.7043 85.3317 85.85 82.6425 83.9319 79.8904C82.8163 78.2891 81.6797 76.6679 80.5226 75.0249C79.911 74.1887 79.3215 73.385 78.7493 72.6056C74.5146 66.8416 71.4306 62.691 67.4051 57.1909C67.0177 56.6655 66.6985 56.2387 66.309 55.7175C66.2346 55.6181 66.1558 55.5125 66.0754 55.4047C65.5639 54.7198 64.9821 53.9386 64.1924 52.8596C62.6031 50.6867 60.2024 47.3535 57.1673 42.9075C56.4151 41.8044 56.0272 41.0303 56.3051 41.1876C56.5002 41.2981 56.9712 41.8371 57.4928 42.5265C56.5773 41.2181 55.6592 39.9014 54.7381 38.5768C54.3705 38.0481 54.0447 37.5353 53.8351 37.1544C53.6257 36.7737 53.5494 36.5563 53.6235 36.5496C53.6976 36.5428 53.9172 36.7482 54.234 37.1188C54.5507 37.4893 54.938 37.9937 55.3116 38.5209C56.3047 39.9224 57.2769 41.2904 58.2665 42.6777C59.2664 44.0794 60.2555 45.4608 61.2408 46.8331C62.2134 48.1877 63.2356 49.6073 64.2282 50.9829C65.2228 52.3612 66.2019 53.7153 67.2169 55.1174C68.2301 56.5168 69.2081 57.8657 70.2075 59.244C70.8164 60.0836 71.4288 60.9282 72.0264 61.7521C72.249 62.0592 72.466 62.3581 72.6824 62.6566C72.8593 62.9006 73.0367 63.1454 73.219 63.3969C75.1644 66.0804 77.0802 68.7258 79.0366 71.4416C80.959 74.1103 82.9147 76.8399 84.8026 79.5018C86.741 82.2355 88.6228 84.9168 90.5022 87.6414C92.3798 90.3639 94.2177 93.0746 96.0564 95.8615C97.8546 98.5871 99.6372 101.362 101.389 104.205C102.708 106.346 104.034 108.569 105.271 110.737C105.781 111.611 106.273 112.47 106.746 113.312C108.13 115.78 109.463 118.274 110.702 120.799C108.543 116.294 106.597 112.836 104.664 109.532C104.408 109.097 104.151 108.662 103.892 108.228C101.244 103.803 98.5415 99.5612 94.8505 93.9812C84.2197 78.1147 77.5658 69.2385 73.581 63.5889C69.5616 57.9742 67.8741 55.5624 66.3094 53.2334C64.1488 50.0166 59.7799 43.8127 57.5814 40.7215C56.7865 39.606 56.2316 38.6311 56.348 38.5562C56.4644 38.4814 57.2079 39.3346 58.0027 40.4499C60.3285 43.7204 65.0435 50.405 67.6382 54.2635C68.8039 55.9985 70.1626 57.9526 74.1131 63.4715C78.0378 69.0383 84.6312 77.828 95.2942 93.7442C98.8507 99.1226 101.47 103.223 104.1 107.597C104.359 108.03 104.618 108.463 104.875 108.899C104.877 108.902 104.878 108.905 104.88 108.908C107.257 112.972 109.799 117.417 112.602 123.744C115.813 130.956 118.64 140.113 118.673 148.143C118.852 156.205 116.289 162.6 115.261 164.886C114.856 165.805 114.427 166.692 113.958 167.585C113.619 168.231 113.247 168.9 112.819 169.621C110.989 172.692 108.553 176.704 103.811 183.969C102.55 185.899 101.04 188.178 99.3831 190.648C96.9455 194.395 94.5671 197.989 92.4597 201.115C90.64 203.814 88.9814 206.305 87.3748 208.719C86.9118 209.415 86.4437 210.118 85.9789 210.815C84.8559 212.499 83.7268 214.184 82.6177 215.817C81.7347 217.117 80.8072 218.486 79.8299 219.925C76.2619 225.172 71.9702 231.441 66.1178 239.453C59.9158 247.937 54.5281 255.112 49.7645 261.269C53.2513 256.781 55.9241 253.269 58.1412 250.354C58.5573 249.806 58.9691 249.263 59.353 248.756C62.0778 245.158 64.021 242.566 66.103 239.718C75.9763 226.17 79.5428 221.004 83.5424 215.144C84.5922 213.599 85.742 211.889 86.9756 210.045C89.4404 206.36 92.2486 202.129 95.2734 197.595C98.0926 193.368 101.196 188.625 104.428 183.544C104.43 183.542 104.431 183.54 104.432 183.538C105.074 182.53 105.699 181.542 106.338 180.525C108.534 177.03 110.785 173.381 112.958 169.706C114.661 166.829 116.028 163.824 117.008 160.683C117.246 159.921 117.514 158.974 117.762 157.896C119.42 151.726 119.35 139.986 114.238 127.295C113.156 124.47 111.945 121.64 110.398 118.41C109.923 117.421 109.442 116.446 108.904 115.389C106.604 110.876 103.588 105.501 99.1957 98.5798C95.5777 92.8691 90.9462 86.0508 86.0218 79.0542C83.6139 75.6296 81.132 72.1472 78.6494 68.6807C71.2491 58.3556 64.358 48.8284 57.6471 39.3316C57.6457 39.3297 57.6444 39.3277 57.643 39.3258C56.85 38.2043 56.3161 37.2516 56.457 37.2115C56.5979 37.1714 57.3589 38.0564 58.1509 39.1761C64.8636 48.6734 71.7345 58.1725 79.1118 68.4664C81.5563 71.88 84.0205 75.3376 86.4198 78.7497C91.3715 85.7844 96.0718 92.7041 99.7256 98.4797C104.194 105.531 107.262 111.023 109.588 115.624C110.15 116.738 110.645 117.751 111.132 118.78C112.64 121.969 113.769 124.652 114.799 127.359C119.713 139.725 119.943 151.135 118.378 157.446C118.136 158.572 117.872 159.558 117.623 160.391C116.632 163.71 115.193 166.922 113.39 169.968C111.342 173.43 109.245 176.84 107.156 180.174C106.51 181.204 105.902 182.167 105.267 183.168C105.266 183.17 105.264 183.172 105.263 183.174C102.028 188.27 98.8709 193.104 96.0011 197.411C93.0865 201.784 90.5613 205.596 88.1824 209.161C86.9035 211.076 85.6729 212.911 84.4436 214.721C80.2022 220.944 76.4349 226.391 66.5251 239.988ZM58.9365 44.5854C60.82 47.3215 62.3832 49.5142 63.571 51.1547C62.5848 49.7625 61.578 48.3383 60.6108 46.9655C60.0544 46.1759 59.4964 45.3828 58.9365 44.5854ZM98.7421 190.705C99.0359 190.253 99.3212 189.814 99.6234 189.348C98.7926 190.594 97.9613 191.835 97.1183 193.087C96.1015 194.597 95.0542 196.143 94.0283 197.65C95.6753 195.245 97.2692 192.897 98.7421 190.705ZM65.6996 239.177C71.2164 231.623 75.1571 225.877 78.7056 220.667C79.7258 219.168 80.7124 217.714 81.6911 216.275C82.0964 215.679 82.5001 215.082 82.9061 214.479C80.4638 217.929 78.1972 221.1 76.3448 223.679C70.7938 231.401 67.582 235.727 64.7477 239.542C63.9147 240.662 63.1347 241.707 62.3292 242.786C61.6723 243.708 61.0044 244.641 60.3259 245.584C59.3491 246.94 58.3369 248.338 57.3278 249.721C56.3505 251.062 55.3022 252.488 54.315 253.823C53.2862 255.213 52.2844 256.556 51.2803 257.892C50.3222 259.167 49.3964 260.389 48.4473 261.631C48.3945 261.7 48.3419 261.768 48.2896 261.837C47.6772 262.638 46.9653 263.562 46.3895 264.305L46 263.505C46.5056 263.502 47.0002 263.499 47.4806 263.496C48.9454 263.485 50.1631 263.473 51.2438 263.454C52.5934 263.431 53.978 263.409 55.3472 263.389C56.7178 263.368 58.0826 263.349 59.4434 263.331C60.807 263.313 62.1572 263.296 63.511 263.28C63.9488 263.275 64.4067 263.269 64.8408 263.264C65.0408 263.262 65.2408 263.26 65.4402 263.258C62.7918 263.256 60.0421 263.253 57.2002 263.249C53.7039 263.244 50.0064 263.231 46 263.217L46.6165 264.483C47.0298 263.96 47.466 263.405 47.9261 262.816C52.9842 256.335 58.7775 248.643 65.6996 239.177ZM102.903 261.287C102.738 261.859 102.444 262.883 102.192 263.789L102.945 263.218C102.234 263.219 101.442 263.221 100.572 263.223C100.058 263.224 99.5155 263.226 98.9473 263.227C98.9607 263.227 98.9744 263.227 98.9878 263.227C100.344 263.24 101.6 263.25 102.945 263.26L102.233 263.801C102.233 263.801 102.243 263.769 102.261 263.706C102.976 261.244 103.682 258.901 104.381 256.6C105.099 254.238 105.817 251.908 106.561 249.519C107.288 247.186 108.03 244.83 108.782 242.464C109.522 240.137 110.27 237.807 111.037 235.438C111.291 234.653 111.517 233.957 111.761 233.205C111.222 234.813 110.617 236.645 110.035 238.423C109.561 239.868 109.044 241.463 108.546 243.005C108.34 243.643 108.094 244.405 107.817 245.265C106.705 248.728 104.99 254.076 102.903 261.287ZM117.932 214.531C118.116 213.995 118.301 213.459 118.485 212.928C119.011 211.412 119.534 209.926 120.04 208.501C120.398 207.493 120.757 206.49 121.115 205.495C121.267 205.071 121.413 204.665 121.561 204.256C121.807 203.574 122.054 202.894 122.3 202.216C120.558 206.934 118.871 211.634 117.187 216.473C117.164 216.538 117.142 216.603 117.119 216.668C117.4 215.926 117.67 215.218 117.932 214.531ZM239.966 88.165C241.051 86.9138 241.983 85.6583 243.041 83.9222C243.042 83.9213 243.042 83.9204 243.043 83.9194C243.196 83.6655 243.344 83.4152 243.497 83.1482C244.73 80.9752 246.176 78.0183 247.712 73.2412C249.388 67.9612 250.358 63.6035 250.98 60.9624C251.097 60.4504 251.198 59.9822 251.428 58.6489C251.574 57.7945 251.767 56.6117 251.998 54.967C252.063 54.4984 252.128 54.0124 252.192 53.5211C252.262 52.971 252.331 52.4072 252.399 51.82C252.5 50.9258 252.591 50.064 252.669 49.0734L254.188 50.4862C250.498 50.9521 245.961 52.749 242.153 55.2495C239.219 57.1373 236.672 59.3089 234.815 61.0335C232.077 63.5835 229.655 66.1938 227.138 69.2265C224.828 72.0204 222.53 75.0718 220.01 78.812C218.099 81.6516 216.236 84.4618 214.423 87.3321C214.192 87.6978 213.96 88.0669 213.729 88.4384C212.134 91.0011 210.56 93.6511 208.971 96.5659C206.137 101.779 204.124 106.1 202.003 110.887C201.171 112.771 200.332 114.717 199.427 116.852C198.002 120.208 195.986 125.075 194.084 129.992C193.922 130.411 193.76 130.832 193.599 131.251C193.598 131.253 193.597 131.255 193.596 131.257C191.864 135.766 190.252 140.224 189.116 143.516C187.317 148.745 186.725 150.732 186.211 152.397C186.021 153.021 185.845 153.599 185.634 154.285C184.869 156.759 183.688 160.491 182.548 164.29C182.543 164.305 182.539 164.319 182.535 164.333C182.346 164.962 182.088 165.436 181.956 165.393C181.825 165.351 181.869 164.808 182.058 164.179C182.661 162.173 183.27 160.196 183.812 158.451C183.727 158.325 183.789 157.826 183.968 157.26C184.424 155.835 185.685 151.477 187.869 144.692C187.689 145.146 187.537 145.524 187.402 145.858C187.243 146.249 187.12 146.547 187.014 146.804C186.794 147.34 186.649 147.696 186.415 148.336C185.894 149.821 185.106 152.186 184.307 154.665C184.106 155.29 183.836 155.766 183.706 155.721C183.575 155.676 183.633 155.127 183.834 154.502C183.838 154.489 183.842 154.477 183.846 154.465C184.638 152.007 185.452 149.564 185.997 148.011C186.137 147.615 186.259 147.274 186.351 147.018C186.425 146.814 186.519 146.559 186.575 146.419C186.583 146.4 186.597 146.365 186.615 146.323C186.615 146.322 186.615 146.321 186.616 146.321C186.626 146.297 186.677 146.177 186.741 146.052C186.754 146.027 186.782 145.972 186.819 145.91C186.826 145.893 186.833 145.876 186.84 145.86C186.937 145.624 187.037 145.383 187.142 145.124C187.557 144.111 188.19 142.492 189.487 139.121C190.682 136.022 192.642 130.76 195.26 124.263C195.074 124.698 194.888 125.135 194.703 125.573C194.239 126.671 193.78 127.776 193.326 128.887C193.152 129.312 192.981 129.732 192.808 130.16C192.529 130.851 192.252 131.541 191.977 132.233C191.791 132.701 191.606 133.17 191.421 133.64C191.421 133.641 191.421 133.642 191.42 133.643C191.164 134.294 190.909 134.947 190.654 135.606C190.564 135.837 190.476 136.065 190.388 136.291C190.04 137.193 189.701 138.079 189.303 139.096C189.254 139.22 189.199 139.353 189.157 139.453C189.113 139.56 189.07 139.663 189.029 139.76C188.993 139.845 188.958 139.927 188.925 140.005C188.921 140.016 188.916 140.026 188.912 140.037C188.874 140.124 188.839 140.208 188.805 140.289C188.772 140.369 188.739 140.447 188.708 140.524C188.707 140.524 188.707 140.525 188.707 140.526C188.674 140.606 188.649 140.667 188.615 140.752C188.572 140.859 188.536 140.951 188.493 141.063C188.451 141.171 188.408 141.284 188.365 141.399C188.322 141.513 188.278 141.63 188.234 141.748C188.19 141.866 188.146 141.987 188.101 142.108C188.057 142.23 188.012 142.353 187.967 142.477C187.922 142.6 187.877 142.726 187.831 142.851C187.727 143.141 187.603 143.411 187.488 143.6C187.372 143.789 187.274 143.882 187.213 143.86C187.153 143.838 187.135 143.7 187.163 143.478C187.191 143.256 187.263 142.967 187.363 142.675C187.39 142.596 187.417 142.516 187.444 142.436C187.461 142.388 187.477 142.34 187.494 142.292C187.538 142.164 187.582 142.034 187.627 141.903C187.673 141.772 187.719 141.641 187.765 141.508C187.812 141.374 187.86 141.239 187.908 141.102C187.957 140.965 188.007 140.826 188.059 140.684C188.11 140.546 188.168 140.389 188.221 140.249C188.26 140.146 188.309 140.021 188.349 139.916C188.392 139.807 188.435 139.699 188.476 139.596C188.517 139.492 188.557 139.392 188.596 139.296C188.6 139.286 188.604 139.276 188.608 139.265C188.642 139.181 188.675 139.099 188.706 139.022C188.741 138.936 188.773 138.854 188.804 138.776C188.838 138.691 188.858 138.638 188.882 138.574C189.197 137.724 189.579 136.669 189.947 135.665C189.994 135.539 190.04 135.414 190.085 135.29C190.328 134.63 190.571 133.973 190.815 133.316C190.993 132.839 191.172 132.362 191.352 131.884C191.616 131.182 191.883 130.479 192.154 129.775C192.321 129.339 192.487 128.91 192.656 128.476C193.097 127.34 193.544 126.207 194.001 125.071C194.458 123.936 194.924 122.798 195.399 121.665C195.87 120.54 196.375 119.363 196.871 118.239C197.236 117.412 197.623 116.572 197.986 115.799C198.183 115.38 198.376 114.97 198.568 114.568C198.569 114.567 198.569 114.565 198.57 114.564C198.738 114.211 198.904 113.863 199.069 113.518C199.424 112.778 199.771 112.053 200.117 111.33C200.464 110.604 200.811 109.877 201.158 109.149C201.502 108.426 201.85 107.693 202.194 106.968C202.539 106.243 202.885 105.514 203.244 104.76C203.718 103.766 204.185 102.789 204.673 101.783C205.161 100.775 205.656 99.7671 206.156 98.7647C206.331 98.4143 206.506 98.0644 206.682 97.715C206.683 97.7136 206.684 97.7123 206.684 97.7109C207.012 97.0602 207.348 96.4009 207.683 95.7505C208.203 94.7421 208.721 93.7549 209.261 92.7461C209.801 91.7359 210.35 90.7306 210.908 89.7331C211.459 88.7477 212.063 87.6924 212.665 86.6776C213.206 85.7657 213.748 84.8705 214.306 83.9679C214.452 83.7319 214.598 83.4967 214.744 83.2624C215.441 82.1462 216.103 81.1072 216.795 80.0339C217.48 78.9719 218.152 77.9429 218.854 76.8873C219.559 75.8264 220.274 74.7706 220.998 73.7281C221.743 72.6562 222.49 71.6093 223.252 70.5726C224.014 69.5365 224.819 68.4762 225.622 67.4563C226.063 66.8963 226.572 66.2688 227.043 65.7029C227.522 65.1286 228.001 64.5697 228.476 64.0291C228.665 63.8142 228.872 63.5816 229.068 63.3625C229.358 63.0403 229.646 62.725 229.929 62.4182C230.409 61.8993 230.873 61.4097 231.336 60.93C231.809 60.44 232.269 59.9738 232.712 59.5302C233.173 59.0698 233.543 58.7041 234.005 58.2535C235.161 57.1538 235.886 56.5388 236.719 55.8529C236.887 55.7154 237.059 55.5762 237.238 55.4328C238.27 54.6118 239.286 53.8663 240.382 53.1358C241.466 52.4149 242.562 51.7546 243.722 51.1378C244.846 50.5396 246.061 49.9744 247.265 49.5041C248.468 49.0328 249.736 48.6251 250.998 48.3174C251.925 48.0907 252.87 47.9116 253.803 47.7874C254.752 47.665 255.467 48.3082 255.389 49.2613C255.388 49.2638 255.385 49.2955 255.381 49.3549C255.378 49.3845 255.375 49.4211 255.372 49.4643C255.369 49.4892 255.368 49.4984 255.367 49.5166C255.361 49.5832 255.353 49.6624 255.345 49.7534C255.337 49.844 255.327 49.949 255.316 50.06C255.309 50.1312 255.301 50.2066 255.293 50.2862C255.217 51.0374 255.134 51.7471 255.044 52.4696C254.985 52.9327 254.91 53.4966 254.845 53.9634C254.819 54.1518 254.791 54.3437 254.763 54.5381C254.665 55.223 254.566 55.8809 254.47 56.5005C254.372 57.1378 254.272 57.7661 254.18 58.3445C254.087 58.9272 253.983 59.5716 253.894 60.1238C253.798 60.7191 253.716 61.2248 253.608 61.8859C253.538 62.3146 253.472 62.7053 253.401 63.1172C253.297 63.7231 253.18 64.3658 253.069 64.9603C252.956 65.5646 252.839 66.1691 252.714 66.7829C252.674 66.9803 252.631 67.1897 252.591 67.3812C252.468 67.9786 252.34 68.5744 252.206 69.1733C252.071 69.7756 251.938 70.3555 251.798 70.941C251.658 71.5275 251.514 72.1094 251.364 72.6976C251.11 73.6949 250.829 74.6456 250.567 75.4735C250.302 76.3115 250.036 77.0896 249.765 77.8407C249.714 77.982 249.663 78.1242 249.61 78.2656C249.386 78.8749 249.156 79.4696 248.923 80.0499C248.636 80.7615 248.332 81.4787 248.021 82.1737C247.714 82.8599 247.38 83.5655 247.038 84.2461C246.692 84.9327 246.353 85.5732 245.951 86.2778C245.553 86.9721 245.156 87.6345 244.65 88.3957C244.153 89.1401 243.625 89.8688 243.001 90.6216C242.389 91.3585 241.728 92.0655 240.993 92.7359C240.271 93.3947 239.469 94.0192 238.627 94.5537C237.789 95.087 236.87 95.5562 235.925 95.9144C234.988 96.2731 233.954 96.5403 232.989 96.6806C231.425 96.9112 229.864 96.8774 228.31 96.6268C226.853 96.3971 225.283 95.9182 224.002 95.392C222.613 94.8255 221.356 94.1705 220.111 93.4212C218.768 92.6064 217.778 91.9129 216.581 91.0045C216.329 90.8123 216.047 90.5922 215.821 90.4121C215.011 89.7668 214.188 89.0697 213.355 88.3223C213.349 88.3171 213.344 88.312 213.338 88.3068C213.101 88.0945 212.865 87.8788 212.627 87.6594L212.696 87.7194C211.901 87.0536 211.181 86.4994 210.346 85.925C209.963 85.6617 209.596 85.424 209.225 85.1972C208.848 84.9665 208.453 84.74 208.07 84.536C207.684 84.3299 207.309 84.1445 206.908 83.9623C206.511 83.782 206.125 83.6232 205.739 83.4794C205.38 83.3459 205.006 83.2207 204.611 83.1044C204.575 83.0937 204.538 83.0832 204.502 83.0728C204.073 82.949 203.567 82.8241 203.099 82.7299C201.872 82.4803 200.636 82.3833 199.391 82.4427C198.144 82.5022 196.909 82.7165 195.675 83.0747C195.202 83.2122 194.725 83.3722 194.247 83.5537C193.519 83.8301 192.78 84.1614 192.072 84.5237C190.896 85.1243 189.749 85.8312 188.637 86.6124C187.525 87.3937 186.45 88.2462 185.401 89.1534C184.362 90.0523 183.349 91.006 182.357 92.0022C181.279 93.0837 180.22 94.2257 179.193 95.3955C178.171 96.5602 177.16 97.7779 176.204 98.9786C175.22 100.216 174.29 101.435 173.352 102.709C172.434 103.954 171.514 105.247 170.624 106.531C170.083 107.313 169.56 108.08 169.036 108.861C168.773 109.285 168.522 109.695 168.28 110.092C166.531 112.976 165.28 115.133 163.665 117.921C163.511 118.192 163.389 118.416 163.24 118.688C163.212 118.74 163.181 118.795 163.151 118.851C162.959 119.202 162.739 119.603 162.423 120.161C161.789 121.282 160.807 122.966 159.445 125.132C159.105 125.672 158.788 125.962 158.739 125.775C158.704 125.644 158.81 125.313 158.993 124.942C158.603 125.599 158.212 126.258 157.821 126.92C157.666 127.184 157.498 127.421 157.354 127.576C157.211 127.731 157.104 127.792 157.057 127.745C157.009 127.698 157.025 127.546 157.099 127.323C157.174 127.1 157.301 126.824 157.452 126.556C157.855 125.845 158.255 125.141 158.655 124.44C159.062 123.728 159.465 123.024 159.868 122.322C160.27 121.624 160.678 120.919 161.088 120.213C161.497 119.509 161.902 118.817 162.315 118.116C162.734 117.404 163.144 116.713 163.561 116.016C163.809 115.6 164.063 115.178 164.317 114.757C164.411 114.602 164.503 114.45 164.595 114.298C164.67 114.174 164.746 114.05 164.823 113.922C165.633 112.592 166.482 111.222 167.314 109.91C168.17 108.561 169.008 107.269 169.897 105.936C170.767 104.633 171.672 103.315 172.572 102.048C173.497 100.748 174.412 99.5049 175.383 98.2425C176.325 97.0175 177.325 95.7716 178.34 94.5769C179.13 93.6471 179.922 92.7528 180.747 91.8702C181.062 91.5182 181.369 91.1826 181.695 90.8362C182.621 89.8502 183.574 88.8863 184.537 87.9888C182.776 89.5576 181.451 90.9592 180.255 92.2915C180.092 92.4732 179.931 92.6556 179.77 92.8391C178.168 94.6717 176.646 96.5476 174.711 99.067C169.226 106.337 166.544 110.905 164.762 113.677C163.008 116.482 162.257 117.679 161.505 118.766C160.442 120.304 158.573 123.403 157.683 124.98C157.36 125.551 157 125.961 156.881 125.891C156.762 125.82 156.929 125.296 157.253 124.724C158.193 123.058 160.218 119.69 161.482 117.871C162.06 117.039 162.654 116.101 164.39 113.327C166.151 110.592 168.808 106.058 174.326 98.7452C176.201 96.3059 177.671 94.4872 179.258 92.6609C179.418 92.4769 179.58 92.2933 179.743 92.1098C179.744 92.1087 179.746 92.1076 179.747 92.1065C181.228 90.4549 182.931 88.6275 185.477 86.5287C188.391 84.1135 192.307 81.7209 196.087 80.849C199.851 79.9061 203.121 80.5258 204.306 80.803C204.779 80.91 205.221 81.0255 205.698 81.1698C207.476 81.7609 209.754 82.4614 213.826 85.6406C213.942 85.7333 214.061 85.8294 214.182 85.929C214.186 85.9317 214.195 85.9402 214.198 85.943C214.987 86.6564 215.863 87.4164 216.782 88.1565C218.489 89.4478 220.085 90.4918 221.729 91.4045C223.025 92.1208 224.373 92.6964 225.603 93.0752C225.943 93.1798 226.34 93.2925 226.72 93.3847C227.647 93.6083 228.484 93.737 229.404 93.8044C230.111 93.8525 230.81 93.8444 231.59 93.7576C234.341 93.465 237.467 92.004 240.393 88.6551C243.505 85.0515 245.24 81.1669 246.603 77.8163C245.61 80.2798 244.673 82.1188 243.833 83.5704C243.677 83.8404 243.518 84.1066 243.364 84.3585C242.277 86.1166 241.384 87.2911 240.351 88.4845C235.226 93.9911 231.904 93.4759 228.969 93.3784C228.133 93.2861 227.31 93.1432 226.296 92.8587C224.439 92.3484 222.264 91.3801 220.114 90.0068C218.306 88.8567 216.441 87.4754 214.403 85.7191C214.398 85.7143 214.382 85.7 214.376 85.6954C214.164 85.5291 213.95 85.366 213.736 85.2062C213.735 85.2055 213.734 85.2047 213.733 85.204C213.268 84.8567 212.801 84.5272 212.326 84.2102C209.356 82.2137 205.817 80.647 202.16 80.2951C201.769 80.2558 201.301 80.2233 200.767 80.2143C197.674 80.0504 192.153 81.3334 186.863 85.2595C185.681 86.106 184.5 87.028 183.222 88.1362C182.829 88.4775 182.415 88.8488 182.011 89.2218C180.211 90.8901 178.16 92.9911 175.659 96.0332C173.6 98.5347 171.247 101.713 168.946 105.103C167.802 106.785 166.676 108.504 165.596 110.196C162.307 115.355 159.458 120.174 156.676 125.014C156.676 125.015 156.675 125.016 156.675 125.017C156.347 125.588 155.991 125.984 155.882 125.896C155.773 125.808 155.951 125.27 156.279 124.699C159.066 119.853 161.912 115.041 165.197 109.89C166.264 108.22 167.383 106.511 168.526 104.83C170.844 101.415 173.239 98.1797 175.331 95.6434C177.889 92.5371 180.005 90.3807 181.845 88.6906C182.276 88.2959 182.718 87.9036 183.12 87.5587C184.404 86.4591 185.527 85.596 186.671 84.7816C191.873 80.9587 197.3 79.6026 200.5 79.7085C201.068 79.7093 201.563 79.7368 201.989 79.7742C205.694 80.0863 209.272 81.6019 212.309 83.5928C212.825 83.9307 213.267 84.2358 213.743 84.5828C213.744 84.5834 213.745 84.5841 213.746 84.5848C214.065 84.8176 214.383 85.0581 214.7 85.3059C214.709 85.3135 214.736 85.3376 214.745 85.3457C216.679 87.0116 218.434 88.322 220.183 89.4532C222.196 90.7515 224.106 91.6449 225.878 92.2012C226.808 92.4949 227.81 92.7209 228.67 92.8307C231.714 93.0227 234.953 93.542 239.966 88.165ZM159.604 123.916C160.445 122.567 161.092 121.474 161.577 120.633C161.152 121.334 160.733 122.03 160.317 122.724C160.08 123.12 159.842 123.517 159.604 123.916ZM216.613 88.6629C216.415 88.515 216.215 88.3627 216.014 88.2066C216.565 88.6569 217.068 89.053 217.694 89.5217C218.426 90.0686 219.143 90.5691 219.845 91.0249C218.754 90.3104 217.549 89.415 216.613 88.6629ZM240.775 88.9785C237.944 92.1986 235.016 93.7419 232.191 94.1912C231.382 94.3225 230.548 94.3646 229.768 94.3337C229.437 94.3206 229.101 94.2963 228.755 94.2593C230.716 94.5716 232.504 94.4176 233.941 94.0343C238.176 92.7765 239.962 90.6089 241.458 89.035C241.897 88.5348 242.275 88.0666 242.661 87.5537C242.956 87.1196 243.265 86.6381 243.544 86.1783C243.941 85.5268 244.365 84.7764 244.731 84.0769C245.098 83.3764 245.461 82.6351 245.796 81.9071C246.13 81.1813 246.448 80.4463 246.752 79.7024C247.034 79.0128 247.303 78.3177 247.553 77.6364C247.567 77.5975 247.582 77.5584 247.596 77.5194C247.86 76.7978 248.1 76.1 248.311 75.4482C248.525 74.7858 248.691 74.2305 248.827 73.7351C248.997 73.1161 249.165 72.4807 249.325 71.8516C249.487 71.2171 249.642 70.5858 249.79 69.9588C249.937 69.3349 250.081 68.7 250.219 68.0714C250.263 67.8681 250.309 67.6558 250.352 67.4551C250.371 67.3626 250.391 67.2702 250.41 67.1782C250.122 68.3945 249.796 69.6699 249.432 70.9642C248.903 72.8415 248.275 74.8256 247.471 76.9602C246.063 80.569 244.31 84.8472 240.775 88.9785ZM253.388 50.0587C253.592 50.0228 253.833 49.9827 254.111 49.9419L253.217 49.1113C253.204 49.3093 253.191 49.4909 253.162 49.8396C253.142 50.0805 253.12 50.3455 253.086 50.7108C253.063 50.9572 253.043 51.1723 253.015 51.4519C253.016 51.4455 253.017 51.4389 253.018 51.4325C253.096 50.7969 253.167 50.1853 253.234 49.4885C253.241 49.4226 253.247 49.3652 253.251 49.3165C253.261 49.2102 253.269 49.1061 253.27 49.1149L254.103 49.89C253.103 50.017 252.117 50.2066 251.139 50.4545C250.044 50.7311 248.915 51.0986 247.864 51.5101C246.799 51.9257 245.722 52.4212 244.718 52.9455C243.685 53.4843 242.692 54.0673 241.724 54.6929C241.414 54.8936 241.103 55.1007 240.792 55.3134C241.494 54.8513 242.222 54.396 242.992 53.9502C243.617 53.5887 244.295 53.2199 244.996 52.8706C245.266 52.7361 245.589 52.5807 245.976 52.4046C247.538 51.7054 249.974 50.6724 253.388 50.0587ZM233.725 61.285C233.532 61.4747 233.34 61.6651 233.15 61.8549C232.6 62.404 232.104 62.9126 231.605 63.4357C231.256 63.8016 230.912 64.1691 230.573 64.5372C230.43 64.6925 230.288 64.8487 230.147 65.0045C229.91 65.2657 229.69 65.5116 229.465 65.7663C231.072 63.9874 232.696 62.3188 234.482 60.6596C234.506 60.638 234.529 60.6162 234.552 60.5944C234.27 60.8261 233.995 61.0563 233.725 61.285ZM170.133 151.89C169.979 151.661 169.865 151.427 169.721 151.132C169.721 151.132 169.721 151.132 169.721 151.132C169.7 151.089 169.679 151.046 169.657 151.001C169.48 150.64 169.244 150.174 168.842 149.503C168.397 148.761 168.134 148.112 168.015 147.689C167.993 147.61 167.959 147.535 167.857 147.358C167.79 147.242 167.696 147.087 167.561 146.863C167.489 146.745 167.406 146.606 167.308 146.444C166.985 145.907 166.436 145.094 165.93 144.345C165.623 143.89 165.332 143.459 165.117 143.127C164.802 142.642 164.515 142.163 164.203 141.642C163.917 141.166 163.61 140.654 163.242 140.07C162.96 139.622 162.76 139.138 162.566 138.639C162.542 138.576 162.517 138.512 162.492 138.448C162.322 138.008 162.148 137.558 161.916 137.1C161.502 136.284 161.065 135.704 160.582 135.062C160.392 134.81 160.196 134.549 159.991 134.261C159.667 133.805 159.226 133.133 158.785 132.458C158.747 132.4 158.71 132.343 158.672 132.285C158.672 132.285 158.672 132.285 158.671 132.284C158.268 131.666 157.871 131.059 157.569 130.622C157.088 129.926 156.878 129.684 156.704 129.481C156.638 129.405 156.577 129.335 156.509 129.248C156.262 128.936 155.937 128.434 155.607 127.925C155.606 127.923 155.605 127.921 155.604 127.919C155.549 127.835 155.598 127.705 155.714 127.629C155.829 127.553 155.967 127.56 156.022 127.644C156.197 127.914 156.367 128.177 156.524 128.409C156.631 128.356 156.748 128.369 156.797 128.445C156.92 128.635 157.379 129.165 158.101 129.99C158.078 129.916 158.061 129.853 158.047 129.796C158.031 129.73 158.021 129.677 158.012 129.633C157.994 129.539 157.981 129.477 157.938 129.381C157.822 129.169 157.616 128.851 157.4 128.517C157.345 128.433 157.394 128.303 157.509 128.227C157.625 128.151 157.763 128.158 157.818 128.242C157.819 128.244 157.82 128.245 157.821 128.247C158.036 128.578 158.248 128.906 158.369 129.127C158.4 129.184 158.425 129.233 158.443 129.271C158.458 129.301 158.475 129.339 158.481 129.363C158.482 129.366 158.483 129.372 158.484 129.38C158.484 129.38 158.484 129.38 158.484 129.38C158.485 129.384 158.488 129.406 158.483 129.435C158.482 129.441 158.479 129.453 158.473 129.47C158.474 129.473 158.474 129.476 158.475 129.479C158.483 129.52 158.491 129.562 158.502 129.606C158.543 129.779 158.625 130.042 158.861 130.547C159.078 131.01 159.523 131.743 160.112 132.634C160.081 132.568 160.05 132.502 160.018 132.436C159.937 132.271 159.855 132.107 159.771 131.943C159.74 131.88 159.708 131.818 159.676 131.755C159.623 131.654 159.571 131.552 159.518 131.451C159.483 131.382 159.447 131.314 159.411 131.245C159.411 131.245 159.411 131.245 159.411 131.245C159.361 131.15 159.311 131.054 159.262 130.958C159.244 130.924 159.227 130.891 159.21 130.858C159.142 130.726 159.075 130.597 159.008 130.442C159.001 130.422 158.995 130.4 158.99 130.384C158.985 130.366 158.98 130.348 158.977 130.332C158.973 130.317 158.97 130.303 158.967 130.289C158.966 130.288 158.966 130.286 158.966 130.284C158.962 130.269 158.959 130.255 158.955 130.241C158.952 130.227 158.949 130.214 158.945 130.201C158.945 130.201 158.945 130.201 158.945 130.201C158.941 130.188 158.938 130.177 158.934 130.164C158.928 130.147 158.922 130.132 158.915 130.115C158.908 130.099 158.9 130.082 158.892 130.065C158.884 130.048 158.875 130.031 158.866 130.014C158.857 129.997 158.848 129.979 158.839 129.962C158.829 129.945 158.819 129.927 158.81 129.91C158.8 129.892 158.79 129.874 158.78 129.856C158.756 129.816 158.755 129.763 158.776 129.709C158.797 129.656 158.839 129.606 158.892 129.57C158.946 129.535 159.008 129.517 159.065 129.519C159.123 129.521 159.17 129.544 159.198 129.581C159.205 129.592 159.213 129.602 159.221 129.613C159.225 129.619 159.23 129.625 159.234 129.631C159.247 129.648 159.259 129.665 159.271 129.682C159.283 129.699 159.295 129.717 159.308 129.734C159.32 129.752 159.332 129.77 159.344 129.789C159.356 129.807 159.367 129.827 159.379 129.847C159.39 129.866 159.402 129.889 159.412 129.909C159.42 129.924 159.428 129.943 159.435 129.96C159.442 129.976 159.448 129.993 159.454 130.009C159.46 130.026 159.466 130.042 159.471 130.057C159.472 130.059 159.472 130.06 159.473 130.062C159.478 130.076 159.482 130.089 159.487 130.101C159.492 130.115 159.497 130.127 159.502 130.139C159.507 130.152 159.511 130.16 159.515 130.17C159.585 130.289 159.681 130.431 159.772 130.565C159.783 130.582 159.795 130.599 159.806 130.616C159.866 130.704 159.926 130.793 159.986 130.881C160.03 130.945 160.074 131.009 160.117 131.073C160.182 131.167 160.246 131.262 160.31 131.357C160.35 131.416 160.389 131.474 160.428 131.533C160.531 131.688 160.633 131.843 160.733 132C160.833 132.156 160.932 132.315 161.028 132.476C161.124 132.637 161.22 132.805 161.306 132.972C161.37 133.095 161.426 133.227 161.475 133.351C161.502 133.418 161.527 133.483 161.552 133.548C161.552 133.548 161.552 133.548 161.552 133.548C161.574 133.605 161.596 133.661 161.618 133.716C161.665 133.835 161.713 133.95 161.764 134.063C161.815 134.176 161.869 134.286 161.927 134.396C161.984 134.504 162.045 134.612 162.108 134.717C162.171 134.823 162.236 134.925 162.307 135.031C162.399 135.17 162.495 135.306 162.593 135.445C162.691 135.583 162.791 135.722 162.891 135.861C162.926 135.909 162.961 135.958 162.997 136.007C162.997 136.007 162.997 136.007 162.997 136.007C163.062 136.097 163.127 136.187 163.192 136.278C163.293 136.417 163.393 136.557 163.493 136.699C163.593 136.84 163.692 136.983 163.79 137.128C163.888 137.273 163.987 137.423 164.079 137.578C164.162 137.716 164.244 137.856 164.324 137.994C164.345 138.03 164.366 138.066 164.387 138.102C164.488 138.274 164.586 138.44 164.69 138.599C164.794 138.759 164.903 138.915 165.018 139.068C165.132 139.222 165.253 139.374 165.377 139.526C165.502 139.679 165.627 139.827 165.757 139.978C165.886 140.128 166.017 140.277 166.15 140.428C166.224 140.511 166.301 140.602 166.373 140.688C166.445 140.775 166.516 140.862 166.585 140.948C166.613 140.983 166.641 141.018 166.669 141.053C166.709 141.103 166.749 141.154 166.789 141.203C166.856 141.286 166.922 141.366 166.988 141.443C167.054 141.52 167.12 141.593 167.187 141.662C167.256 141.733 167.316 141.79 167.392 141.855C167.565 142.022 167.658 142.134 167.762 142.259C167.783 142.283 167.804 142.308 167.826 142.334C167.949 142.485 168.068 142.637 168.183 142.79C168.299 142.944 168.41 143.098 168.52 143.256C168.629 143.412 168.735 143.571 168.839 143.731C168.943 143.891 169.044 144.052 169.143 144.215C169.241 144.378 169.339 144.547 169.431 144.71C169.485 144.804 169.539 144.905 169.589 145C169.625 145.068 169.66 145.135 169.695 145.201C169.709 145.228 169.723 145.255 169.737 145.282C169.785 145.374 169.832 145.462 169.879 145.547C169.926 145.632 169.973 145.713 170.022 145.79C170.071 145.868 170.121 145.941 170.175 146.014C170.231 146.088 170.279 146.149 170.344 146.224C170.387 146.273 170.429 146.32 170.471 146.368C170.533 146.439 170.596 146.51 170.659 146.581C170.722 146.652 170.785 146.721 170.849 146.791C170.869 146.813 170.891 146.837 170.911 146.859C170.975 146.928 171.038 146.997 171.103 147.064C171.167 147.131 171.231 147.198 171.296 147.263C171.361 147.329 171.426 147.393 171.493 147.457C171.607 147.567 171.702 147.681 171.783 147.783C171.864 147.887 171.937 147.986 172.007 148.082C172.02 148.1 172.034 148.118 172.047 148.136C172.104 148.214 172.159 148.29 172.215 148.365C172.284 148.457 172.352 148.547 172.422 148.637C172.491 148.725 172.562 148.814 172.634 148.901C172.706 148.988 172.777 149.07 172.854 149.158C172.931 149.245 173.012 149.33 173.102 149.424C173.19 149.518 173.283 149.616 173.374 149.717C173.465 149.818 173.555 149.922 173.641 150.027C173.727 150.133 173.811 150.24 173.892 150.348C173.972 150.457 174.05 150.566 174.125 150.677C174.201 150.787 174.276 150.902 174.346 151.01C174.458 151.186 174.568 151.363 174.678 151.539C174.787 151.715 174.896 151.892 175.004 152.069C175.112 152.245 175.22 152.422 175.328 152.598C175.436 152.775 175.543 152.951 175.65 153.128C175.674 153.167 175.698 153.206 175.722 153.245C175.805 153.383 175.889 153.52 175.972 153.657C175.972 153.658 175.973 153.659 175.974 153.66C176.081 153.836 176.186 154.009 176.293 154.183C176.333 154.246 176.371 154.308 176.41 154.37C176.449 154.432 176.487 154.493 176.527 154.554C176.566 154.615 176.605 154.675 176.644 154.735C176.684 154.795 176.723 154.853 176.764 154.911C176.801 154.964 176.838 155.017 176.88 155.074C176.883 155.079 176.887 155.084 176.891 155.089C176.936 155.152 176.986 155.224 177.029 155.293C177.145 155.474 177.26 155.651 177.378 155.829C177.496 156.007 177.616 156.184 177.738 156.362C177.785 156.431 177.833 156.501 177.881 156.571C177.955 156.679 178.029 156.788 178.104 156.897C178.226 157.078 178.348 157.259 178.468 157.443C178.587 157.626 178.705 157.812 178.82 157.999C178.934 158.186 179.047 158.376 179.156 158.566C179.277 158.777 179.396 158.988 179.515 159.2C179.634 159.412 179.752 159.624 179.869 159.836C179.987 160.049 180.104 160.261 180.22 160.474C180.337 160.686 180.453 160.899 180.569 161.113C180.638 161.24 180.707 161.368 180.776 161.496C180.828 161.553 180.878 161.608 180.926 161.661C181.282 162.052 181.539 162.334 181.847 162.727C181.878 162.763 181.907 162.791 181.942 162.824C181.948 162.831 181.955 162.838 181.963 162.845C182.008 162.889 182.059 162.94 182.12 163.017C182.244 163.171 182.407 163.424 182.525 163.813C182.554 163.912 182.478 164.038 182.353 164.094C182.266 164.134 182.179 164.13 182.124 164.089C182.176 164.197 182.226 164.304 182.277 164.411C182.298 164.453 182.296 164.507 182.272 164.56C182.248 164.614 182.204 164.662 182.149 164.695C182.094 164.729 182.031 164.744 181.975 164.739C181.919 164.734 181.874 164.709 181.849 164.669C181.783 164.564 181.717 164.459 181.65 164.354C181.583 164.249 181.515 164.145 181.447 164.042C181.379 163.938 181.311 163.834 181.242 163.731C181.173 163.628 181.103 163.525 181.033 163.422C180.963 163.319 180.894 163.217 180.823 163.114C180.781 163.053 180.738 162.99 180.696 162.929C180.68 162.906 180.664 162.884 180.649 162.862C180.637 162.844 180.624 162.825 180.611 162.807C180.474 162.609 180.335 162.409 180.197 162.212C180.059 162.014 179.92 161.816 179.781 161.618C179.643 161.42 179.503 161.223 179.364 161.026C179.225 160.828 179.085 160.631 178.945 160.434C178.806 160.237 178.666 160.04 178.525 159.844C178.417 159.692 178.309 159.541 178.2 159.391C178.149 159.337 178.099 159.284 178.05 159.231C177.907 159.077 177.754 158.929 177.604 158.783C177.824 159.074 178.014 159.299 178.196 159.513C178.22 159.541 178.244 159.57 178.268 159.598C178.514 159.889 178.746 160.172 179.01 160.586C179.761 161.762 180.194 162.446 180.445 162.884C180.697 163.322 180.777 163.529 180.809 163.75C180.855 164.062 181.096 164.563 181.247 164.796C181.302 164.88 181.252 165.01 181.137 165.086C181.021 165.162 180.883 165.155 180.829 165.071C180.67 164.825 180.405 164.285 180.35 163.914C180.325 163.748 180.267 163.578 180.02 163.147C179.772 162.715 179.343 162.038 178.591 160.859C178.336 160.461 178.113 160.188 177.87 159.901C177.846 159.872 177.822 159.844 177.798 159.815C177.798 159.815 177.798 159.815 177.797 159.815C177.574 159.551 177.331 159.264 177.036 158.855C176.357 157.912 175.422 156.658 175.176 156.376C175.127 156.321 175.079 156.268 175.029 156.213C174.835 156 174.601 155.742 174.144 155.116C174.044 154.978 173.931 154.815 173.809 154.636C173.574 154.402 173.347 154.174 173.165 153.965C173.007 153.786 172.837 153.636 172.667 153.495C172.618 153.455 172.568 153.414 172.518 153.374C172.397 153.277 172.277 153.179 172.167 153.079C172.08 153 171.985 152.918 171.884 152.833C171.517 152.521 171.078 152.147 170.678 151.546C170.253 150.908 169.915 150.346 169.626 149.859C169.828 150.223 169.973 150.512 170.091 150.754C170.114 150.799 170.135 150.843 170.155 150.885C170.301 151.183 170.406 151.399 170.549 151.612C171.228 152.626 171.517 152.985 171.905 153.348C172.007 153.444 172.125 153.545 172.253 153.654C172.509 153.873 172.801 154.123 173.071 154.42C173.323 154.698 173.621 154.997 173.936 155.314C173.936 155.314 173.936 155.314 173.936 155.314C173.998 155.376 174.061 155.439 174.123 155.502C174.506 155.888 174.905 156.296 175.263 156.714C175.301 156.759 175.348 156.812 175.402 156.873C175.713 157.222 176.259 157.837 176.746 158.706C176.853 158.897 176.949 159.105 177.059 159.343C177.092 159.415 177.127 159.491 177.164 159.569C177.322 159.906 177.521 160.312 177.822 160.829C178.07 161.255 178.39 161.763 178.723 162.291C178.886 162.551 179.053 162.815 179.215 163.077C179.706 163.868 180.14 164.604 180.574 165.338C180.574 165.338 180.574 165.338 180.574 165.338C180.625 165.425 180.572 165.555 180.455 165.628C180.338 165.702 180.201 165.691 180.15 165.604C179.716 164.87 179.283 164.136 178.794 163.348C178.634 163.09 178.469 162.827 178.306 162.568C177.972 162.038 177.647 161.523 177.397 161.093C177.091 160.567 176.888 160.154 176.728 159.812C176.689 159.73 176.653 159.652 176.619 159.578C176.51 159.343 176.42 159.148 176.319 158.966C175.847 158.125 175.322 157.533 175.01 157.182C174.955 157.12 174.906 157.065 174.866 157.018C174.515 156.608 174.122 156.206 173.74 155.82C173.678 155.758 173.616 155.695 173.554 155.634C173.554 155.634 173.554 155.633 173.554 155.633C173.238 155.317 172.935 155.012 172.679 154.729C172.419 154.443 172.155 154.217 171.908 154.007C171.775 153.894 171.648 153.785 171.528 153.673C171.117 153.288 170.815 152.908 170.133 151.89ZM182.044 163.924C181.962 163.688 181.864 163.516 181.78 163.396C181.837 163.508 181.893 163.62 181.949 163.732C181.981 163.796 182.012 163.86 182.044 163.924ZM174.21 154.335C174.238 154.363 174.267 154.392 174.296 154.42C174.232 154.331 174.169 154.242 174.105 154.153C174.027 154.043 173.95 153.934 173.872 153.824C173.989 154.003 174.102 154.175 174.21 154.335ZM171.094 151.268C171.472 151.834 171.875 152.178 172.238 152.488C172.343 152.577 172.444 152.664 172.541 152.752C172.581 152.789 172.622 152.824 172.664 152.86C172.5 152.599 172.351 152.358 172.228 152.16C171.863 151.571 171.68 151.219 171.52 150.91C171.474 150.82 171.429 150.734 171.383 150.647C171.324 150.588 171.263 150.527 171.204 150.464C171.121 150.376 171.033 150.279 170.951 150.186C170.869 150.092 170.787 149.996 170.708 149.901C170.629 149.804 170.552 149.708 170.476 149.611C170.405 149.519 170.336 149.428 170.268 149.339C170.265 149.334 170.261 149.329 170.257 149.324C170.186 149.23 170.116 149.139 170.05 149.057C169.982 148.974 169.923 148.906 169.864 148.851C169.79 148.782 169.716 148.71 169.644 148.638C169.571 148.566 169.5 148.493 169.43 148.421C169.36 148.348 169.292 148.275 169.224 148.201C169.202 148.177 169.179 148.152 169.158 148.129C169.148 148.118 169.138 148.107 169.128 148.096C169.233 148.258 169.342 148.427 169.453 148.602C169.613 148.855 169.776 149.131 169.956 149.435C170.263 149.953 170.619 150.555 171.094 151.268ZM167.473 145.679C167.52 145.748 167.591 145.849 167.683 145.978C167.705 146.009 167.728 146.041 167.752 146.075C167.751 146.074 167.751 146.073 167.75 146.072C167.704 145.979 167.661 145.894 167.613 145.803C167.528 145.641 167.443 145.484 167.355 145.328C167.267 145.17 167.177 145.015 167.085 144.86C166.993 144.705 166.899 144.552 166.803 144.4C166.707 144.248 166.609 144.099 166.509 143.95C166.477 143.903 166.444 143.855 166.412 143.808C166.472 143.922 166.537 144.038 166.605 144.162C166.66 144.26 166.717 144.363 166.776 144.471C166.798 144.513 166.824 144.564 166.855 144.623C166.976 144.86 167.165 145.23 167.473 145.679ZM165.505 142.69C165.479 142.657 165.454 142.624 165.429 142.591C165.359 142.498 165.293 142.405 165.229 142.314C165.184 142.25 165.14 142.186 165.096 142.124C165.078 142.097 165.059 142.071 165.041 142.045C165.011 142.001 164.98 141.958 164.95 141.915C165.141 142.23 165.33 142.537 165.535 142.852C165.537 142.856 165.54 142.86 165.543 142.864C165.53 142.805 165.517 142.747 165.505 142.69ZM171.738 215.308C171.617 216.112 171.476 216.831 171.298 217.785C171.298 217.785 171.298 217.786 171.297 217.786C171.272 217.921 171.247 218.059 171.22 218.201C171.014 219.326 170.745 220.852 170.467 223.102C170.159 225.604 169.882 227.606 169.687 228.787C169.65 229.018 169.622 229.261 169.587 229.847C169.564 230.219 169.537 230.765 169.517 231.509C169.506 231.888 169.497 232.387 169.497 232.918C169.506 234.382 169.574 236.638 170.148 238.453C170.298 238.904 170.436 239.253 170.61 239.611C170.911 240.232 171.263 240.667 171.56 240.844C171.831 241.006 172.074 241.013 172.424 240.928C173.517 240.626 174.763 239.548 175.936 238.345C177.031 237.21 178.125 235.889 179.327 234.286C180.258 233.041 181.185 231.885 182.15 230.659C182.276 230.498 182.391 230.354 182.512 230.199C183.348 229.132 184.193 228.03 185.062 226.79C186.605 224.584 187.693 222.766 188.918 220.72C189.388 219.934 189.893 219.088 190.43 218.206C191.289 216.797 192.555 214.776 193.831 212.767C193.94 212.595 194.05 212.423 194.159 212.251C194.16 212.25 194.16 212.249 194.161 212.248C195.331 210.408 196.497 208.602 197.347 207.276C198.699 205.171 199.194 204.366 199.601 203.694C199.755 203.442 199.898 203.209 200.072 202.933C200.703 201.938 201.708 200.477 202.75 199.011C202.754 199.005 202.758 199 202.762 198.994C202.935 198.751 203.166 198.621 203.277 198.702C203.389 198.783 203.34 199.045 203.168 199.287C202.62 200.059 202.083 200.826 201.617 201.508C201.691 201.611 201.639 201.846 201.487 202.066C201.108 202.619 200.021 204.365 198.386 207.133C198.525 206.961 198.643 206.819 198.748 206.695C198.872 206.549 198.969 206.439 199.052 206.344C199.225 206.147 199.34 206.016 199.524 205.769C199.933 205.186 200.554 204.259 201.217 203.286C201.385 203.041 201.613 202.906 201.726 202.984C201.84 203.063 201.796 203.326 201.629 203.571C201.626 203.576 201.622 203.581 201.619 203.585C200.964 204.546 200.324 205.502 199.897 206.11C199.788 206.265 199.693 206.397 199.621 206.495C199.564 206.574 199.492 206.673 199.448 206.725C199.442 206.732 199.431 206.745 199.417 206.76C199.416 206.76 199.416 206.761 199.416 206.761C199.408 206.769 199.368 206.813 199.317 206.854C199.307 206.862 199.284 206.88 199.254 206.898C199.249 206.905 199.243 206.911 199.238 206.917C199.162 207.004 199.085 207.092 199.003 207.189C198.682 207.568 198.189 208.178 197.24 209.501C196.368 210.715 194.977 212.834 193.3 215.506C193.423 215.33 193.545 215.154 193.668 214.977C193.974 214.536 194.278 214.093 194.585 213.647C194.702 213.476 194.818 213.308 194.936 213.136C195.126 212.858 195.316 212.581 195.505 212.305C195.633 212.119 195.762 211.932 195.89 211.745C195.891 211.744 195.891 211.744 195.891 211.744C196.07 211.484 196.249 211.224 196.43 210.961C196.494 210.87 196.557 210.779 196.619 210.689C196.867 210.33 197.11 209.981 197.401 209.584C197.438 209.537 197.478 209.486 197.509 209.448C197.542 209.407 197.574 209.368 197.605 209.332C197.632 209.299 197.658 209.269 197.683 209.239C197.686 209.235 197.689 209.231 197.693 209.228C197.721 209.195 197.747 209.163 197.772 209.133C197.798 209.102 197.822 209.073 197.846 209.044C197.846 209.044 197.846 209.043 197.846 209.043C197.871 209.013 197.889 208.989 197.915 208.957C197.947 208.916 197.974 208.88 198.006 208.837C198.037 208.795 198.069 208.751 198.101 208.706C198.133 208.661 198.165 208.616 198.198 208.569C198.23 208.523 198.263 208.475 198.297 208.427C198.33 208.379 198.363 208.331 198.396 208.282C198.43 208.233 198.464 208.184 198.498 208.134C198.576 208.02 198.672 207.924 198.764 207.868C198.857 207.812 198.939 207.801 198.992 207.837C199.046 207.873 199.067 207.953 199.053 208.06C199.038 208.168 198.988 208.294 198.914 208.411C198.894 208.443 198.874 208.475 198.854 208.508C198.842 208.527 198.83 208.546 198.818 208.565C198.786 208.617 198.753 208.669 198.72 208.721C198.687 208.774 198.653 208.827 198.619 208.88C198.584 208.933 198.55 208.987 198.514 209.042C198.478 209.096 198.441 209.152 198.403 209.208C198.366 209.262 198.324 209.324 198.285 209.379C198.256 209.419 198.22 209.468 198.19 209.508C198.159 209.551 198.127 209.592 198.097 209.632C198.066 209.672 198.037 209.71 198.008 209.747C198.005 209.751 198.002 209.755 197.999 209.759C197.974 209.791 197.95 209.823 197.927 209.852C197.902 209.886 197.878 209.917 197.855 209.947C197.831 209.981 197.816 210.001 197.798 210.026C197.571 210.364 197.303 210.786 197.044 211.194C197.012 211.245 196.979 211.295 196.948 211.345C196.779 211.612 196.611 211.879 196.443 212.144C196.322 212.338 196.2 212.531 196.078 212.725C195.9 213.009 195.719 213.296 195.539 213.583C195.427 213.761 195.317 213.936 195.205 214.113C194.913 214.576 194.623 215.037 194.327 215.501C194.031 215.967 193.733 216.432 193.433 216.895C193.135 217.354 192.819 217.833 192.508 218.293C192.279 218.631 192.037 218.969 191.811 219.28C191.689 219.448 191.571 219.608 191.451 219.772C191.451 219.772 191.45 219.773 191.45 219.773C191.345 219.917 191.242 220.058 191.14 220.198C190.921 220.498 190.709 220.793 190.501 221.089C190.292 221.385 190.093 221.672 189.886 221.98C189.682 222.282 189.48 222.589 189.282 222.892C189.084 223.198 188.893 223.498 188.695 223.812C188.429 224.236 188.168 224.657 187.904 225.084C187.641 225.51 187.382 225.93 187.11 226.37C187.016 226.522 186.922 226.673 186.828 226.824C186.828 226.825 186.827 226.825 186.827 226.826C186.654 227.105 186.481 227.383 186.308 227.659C186.042 228.084 185.76 228.532 185.487 228.961C185.211 229.393 184.94 229.814 184.648 230.259C184.36 230.698 184.065 231.139 183.765 231.569C183.486 231.97 183.204 232.368 182.932 232.747C182.86 232.847 182.788 232.947 182.717 233.046C182.377 233.517 182.024 234.003 181.701 234.453C181.384 234.892 181.032 235.385 180.705 235.842C180.384 236.29 180.029 236.782 179.686 237.249C179.351 237.706 178.981 238.197 178.62 238.66C178.278 239.1 177.86 239.611 177.48 240.051C177.273 240.292 176.996 240.592 176.763 240.832C176.526 241.076 176.274 241.321 176.004 241.564C175.896 241.66 175.789 241.753 175.684 241.842C175.533 241.97 175.37 242.101 175.195 242.233C174.898 242.455 174.651 242.627 174.325 242.821C173.999 243.01 173.721 243.153 173.363 243.293C172.988 243.432 172.711 243.516 172.272 243.575C171.239 243.685 170.471 243.348 169.917 242.973C169.801 242.894 169.685 242.806 169.57 242.708C168.962 242.189 168.546 241.561 168.232 240.975C167.917 240.371 167.738 239.922 167.529 239.307C167.514 239.263 167.499 239.218 167.485 239.172C167.291 238.558 167.162 237.955 167.061 237.328C166.968 236.756 166.9 236.114 166.86 235.554C166.817 234.952 166.797 234.372 166.79 233.792C166.786 233.446 166.789 233.115 166.796 232.792C166.801 232.56 166.808 232.328 166.816 232.096C166.819 232.003 166.823 231.904 166.827 231.82C166.839 231.519 166.854 231.22 166.868 230.926C166.881 230.636 166.895 230.332 166.906 230.073C166.917 229.804 166.927 229.536 166.934 229.265C166.941 228.987 166.947 228.736 166.95 228.449C166.952 228.261 166.954 228.074 166.957 227.887C166.961 227.606 166.967 227.324 166.973 227.036C166.98 226.74 166.986 226.482 166.993 226.202C166.995 226.114 166.998 226.019 167.001 225.929C167.008 225.652 167.016 225.374 167.025 225.094C167.034 224.805 167.04 224.554 167.048 224.283C167.056 224.014 167.063 223.746 167.071 223.471C167.084 222.997 167.114 222.563 167.146 222.181C167.178 221.793 167.214 221.427 167.251 221.067C167.258 221 167.265 220.932 167.272 220.864C167.302 220.577 167.331 220.306 167.361 220.03C167.397 219.691 167.432 219.355 167.468 219.015C167.504 218.674 167.538 218.344 167.57 218.016C167.603 217.685 167.634 217.366 167.667 217.019C167.7 216.677 167.731 216.316 167.762 215.947C167.794 215.576 167.83 215.182 167.871 214.781C167.912 214.382 167.96 213.961 168.008 213.572C168.056 213.175 168.11 212.774 168.168 212.376C168.226 211.979 168.29 211.566 168.352 211.185C168.415 210.798 168.485 210.396 168.553 210.017C168.663 209.403 168.777 208.789 168.892 208.189C169.006 207.588 169.125 206.977 169.247 206.366C169.365 205.771 169.487 205.17 169.612 204.565C169.738 203.955 169.863 203.36 169.99 202.763C170.018 202.63 170.047 202.498 170.075 202.365C170.175 201.899 170.278 201.424 170.379 200.959C170.38 200.956 170.38 200.953 170.381 200.95C170.51 200.359 170.64 199.774 170.771 199.179C170.82 198.96 170.866 198.75 170.914 198.535C170.962 198.318 171.007 198.114 171.053 197.905C171.099 197.696 171.144 197.487 171.188 197.281C171.233 197.073 171.277 196.87 171.32 196.664C171.36 196.475 171.398 196.287 171.441 196.081C171.445 196.062 171.448 196.043 171.452 196.024C171.499 195.8 171.554 195.538 171.607 195.307C171.748 194.689 171.886 194.082 172.026 193.46C172.168 192.835 172.307 192.219 172.447 191.599C172.502 191.356 172.558 191.112 172.614 190.867C172.7 190.486 172.789 190.102 172.878 189.716C173.024 189.09 173.172 188.464 173.327 187.829C173.481 187.197 173.642 186.557 173.803 185.933C173.965 185.307 174.134 184.672 174.306 184.045C174.498 183.343 174.688 182.665 174.884 181.969C175.08 181.278 175.28 180.578 175.478 179.897C175.677 179.209 175.879 178.521 176.083 177.83C176.288 177.139 176.492 176.461 176.7 175.773C176.825 175.362 176.95 174.95 177.076 174.537C177.126 174.313 177.171 174.104 177.216 173.899C177.547 172.394 177.796 171.287 178.159 169.864C178.192 169.726 178.215 169.614 178.243 169.476C178.249 169.45 178.254 169.422 178.26 169.394C178.298 169.214 178.342 169.008 178.414 168.724C178.559 168.155 178.809 167.302 179.245 166.227C179.355 165.955 179.536 165.814 179.647 165.913C179.726 165.982 179.75 166.15 179.719 166.338C179.833 166.008 179.947 165.678 180.062 165.349C180.107 165.217 180.174 165.101 180.248 165.026C180.321 164.951 180.396 164.924 180.455 164.95C180.515 164.976 180.555 165.053 180.567 165.166C180.58 165.278 180.564 165.416 180.523 165.55C180.416 165.903 180.31 166.256 180.204 166.608C180.099 166.96 179.996 167.311 179.893 167.663C179.791 168.014 179.689 168.365 179.587 168.721C179.486 169.075 179.386 169.429 179.286 169.784C179.186 170.14 179.089 170.49 178.991 170.845C178.932 171.057 178.873 171.272 178.814 171.484C178.793 171.563 178.772 171.641 178.75 171.718C178.733 171.782 178.716 171.845 178.698 171.911C178.51 172.6 178.322 173.294 178.14 173.98C177.957 174.665 177.773 175.365 177.593 176.055C177.412 176.749 177.236 177.432 177.058 178.129C176.881 178.825 176.706 179.518 176.533 180.209C176.363 180.893 176.189 181.598 176.021 182.291C175.89 182.828 175.763 183.358 175.637 183.888C175.597 184.1 175.556 184.313 175.516 184.521C175.399 185.128 175.295 185.735 175.194 186.331C175.429 185.286 175.608 184.426 175.777 183.623C175.8 183.515 175.822 183.408 175.845 183.302C176.074 182.216 176.311 181.143 176.683 179.753C177.755 175.762 178.417 173.469 178.85 172.037C179.284 170.607 179.505 170.011 179.761 169.46C180.123 168.68 180.647 167.143 180.882 166.357C180.967 166.071 181.143 165.872 181.275 165.913C181.408 165.953 181.446 166.218 181.361 166.503C181.114 167.332 180.551 168.997 180.122 169.923C179.931 170.335 179.746 170.81 179.319 172.217C178.893 173.626 178.238 175.896 177.165 179.889C176.807 181.228 176.579 182.259 176.351 183.333C176.329 183.439 176.307 183.545 176.284 183.652C176.284 183.653 176.284 183.653 176.284 183.654C176.076 184.642 175.847 185.738 175.516 187.176C174.74 190.517 173.803 195.051 173.624 196.118C173.586 196.332 173.552 196.539 173.516 196.756C173.379 197.592 173.214 198.586 172.783 200.835C172.69 201.321 172.576 201.899 172.451 202.53C172.327 203.488 172.212 204.397 172.093 205.211C171.992 205.907 171.933 206.537 171.882 207.166C171.867 207.348 171.853 207.531 171.839 207.713C171.805 208.151 171.774 208.587 171.735 209.007C171.705 209.34 171.677 209.694 171.648 210.074C171.543 211.443 171.428 213.072 171.107 215.169C170.773 217.366 170.481 219.309 170.256 220.93C170.432 219.747 170.601 218.791 170.74 218.036C170.767 217.891 170.793 217.751 170.818 217.616C170.999 216.649 171.129 215.99 171.242 215.239C171.785 211.699 171.995 210.355 172.137 208.845C172.176 208.448 172.213 208.006 172.255 207.525C172.339 206.56 172.433 205.498 172.602 204.317C172.752 203.258 172.917 202.013 173.09 200.748C173.09 200.747 173.09 200.747 173.09 200.746C173.124 200.496 173.159 200.243 173.195 199.986C173.417 198.408 173.659 196.784 173.945 195.196C173.975 195.027 174.01 194.824 174.051 194.591C174.288 193.235 174.711 190.861 175.472 188.036C175.64 187.408 175.832 186.769 176.053 186.039C176.121 185.817 176.191 185.585 176.264 185.343C176.583 184.289 176.957 183.038 177.435 181.33C177.824 179.939 178.293 178.215 178.784 176.452C179.028 175.579 179.28 174.687 179.53 173.817C180.291 171.17 181.024 168.769 181.774 166.372C181.775 166.371 181.775 166.371 181.775 166.37C181.864 166.087 182.041 165.896 182.171 165.945C182.3 165.994 182.333 166.264 182.245 166.547C181.495 168.943 180.765 171.335 180.007 173.97C179.761 174.826 179.511 175.71 179.269 176.579C178.775 178.348 178.301 180.094 177.908 181.497C177.423 183.232 177.043 184.506 176.72 185.572C176.643 185.827 176.571 186.066 176.502 186.293C176.284 187.012 176.104 187.614 175.944 188.208C175.209 190.94 174.802 193.219 174.564 194.58C174.522 194.82 174.485 195.03 174.453 195.209C174.174 196.758 173.933 198.365 173.712 199.934C173.677 200.187 173.642 200.439 173.608 200.687C173.608 200.688 173.608 200.688 173.607 200.689C173.435 201.951 173.267 203.216 173.113 204.296C172.952 205.422 172.864 206.397 172.785 207.312C172.741 207.81 172.701 208.286 172.655 208.751C172.504 210.345 172.281 211.766 171.738 215.308ZM179.545 166.849C179.284 167.519 179.111 168.072 178.993 168.495C179.11 168.141 179.226 167.793 179.343 167.444C179.41 167.246 179.477 167.047 179.545 166.849ZM171.944 202.517C171.959 202.402 171.974 202.285 171.989 202.168C171.928 202.488 171.868 202.806 171.809 203.123C171.736 203.513 171.665 203.894 171.593 204.286C171.715 203.669 171.833 203.078 171.944 202.517ZM170.612 215.098C170.914 213.116 171.021 211.612 171.122 210.258C171.152 209.868 171.184 209.474 171.216 209.111C171.23 208.957 171.243 208.803 171.256 208.648C171.09 209.524 170.933 210.374 170.812 211.04C170.449 213.052 170.232 214.175 170.037 215.199C169.981 215.491 169.929 215.77 169.878 216.053C169.859 216.293 169.841 216.529 169.818 216.788C169.788 217.146 169.753 217.529 169.72 217.889C169.687 218.253 169.654 218.611 169.618 218.973C169.582 219.345 169.546 219.709 169.51 220.067C169.476 220.405 169.443 220.736 169.412 221.057C169.41 221.076 169.408 221.095 169.406 221.114C169.371 221.466 169.34 221.804 169.315 222.112C169.29 222.426 169.274 222.684 169.268 222.912C169.261 223.192 169.251 223.509 169.242 223.802C169.233 224.099 169.224 224.392 169.215 224.679C169.206 224.965 169.197 225.258 169.187 225.554C169.184 225.649 169.181 225.748 169.178 225.841C169.177 225.884 169.176 225.927 169.174 225.97C169.223 225.4 169.279 224.811 169.341 224.213C169.434 223.325 169.548 222.415 169.69 221.371C169.926 219.636 170.235 217.573 170.612 215.098ZM168.992 234.504C168.978 234.269 168.956 233.921 168.938 233.444C168.934 233.327 168.93 233.224 168.927 233.105C168.926 233.108 168.927 233.111 168.926 233.114C168.919 233.392 168.917 233.698 168.919 233.991C168.922 234.508 168.939 235.038 168.972 235.545C169.004 236.038 169.058 236.583 169.132 237.073C169.211 237.591 169.313 238.085 169.451 238.546C169.463 238.588 169.476 238.628 169.489 238.668C169.646 239.156 169.79 239.528 169.992 239.941C170.064 240.088 170.139 240.225 170.214 240.351C170.059 240.064 169.897 239.697 169.775 239.36C169.697 239.148 169.618 238.913 169.541 238.651C169.519 238.577 169.498 238.499 169.477 238.417C169.446 238.295 169.41 238.143 169.372 237.953C169.232 237.254 169.086 236.074 168.992 234.504ZM172.909 241.363C172.997 241.325 173.087 241.283 173.179 241.236C173.449 241.098 173.696 240.944 173.939 240.775C174.11 240.657 174.301 240.512 174.449 240.394C174.515 240.341 174.582 240.286 174.649 240.229C174.761 240.135 174.874 240.037 174.988 239.934C174.218 240.593 173.362 241.201 172.547 241.414C172.536 241.416 172.525 241.419 172.515 241.422C172.639 241.414 172.784 241.39 172.909 241.363ZM193.585 187.288C193.448 187.084 193.349 186.874 193.225 186.608C193.225 186.608 193.225 186.608 193.225 186.608C193.207 186.57 193.189 186.53 193.17 186.49C193.016 186.165 192.81 185.743 192.455 185.144C192.061 184.48 191.838 183.89 191.745 183.507C191.727 183.435 191.7 183.369 191.609 183.208C191.549 183.104 191.466 182.964 191.346 182.764C191.282 182.657 191.208 182.534 191.122 182.389C190.84 181.914 190.342 181.177 189.895 180.517C189.617 180.107 189.357 179.723 189.167 179.429C188.89 179 188.629 178.561 188.357 178.101C188.108 177.679 187.828 177.207 187.507 176.695C187.255 176.293 187.082 175.848 186.923 175.404C186.903 175.347 186.883 175.29 186.863 175.233C186.715 174.827 186.568 174.417 186.371 174.013C186.004 173.266 185.621 172.767 185.178 172.187C185.008 171.965 184.837 171.742 184.647 171.477C184.358 171.073 183.955 170.459 183.574 169.875C183.539 169.821 183.504 169.768 183.47 169.715C183.47 169.715 183.47 169.714 183.469 169.714C183.108 169.16 182.749 168.61 182.487 168.234C182.049 167.602 181.86 167.39 181.704 167.216C181.645 167.149 181.599 167.101 181.529 167.012C181.296 166.721 181.023 166.298 180.717 165.825C180.716 165.824 180.715 165.822 180.714 165.82C180.678 165.765 180.714 165.614 180.844 165.56C180.945 165.462 181.096 165.489 181.132 165.545C181.293 165.793 181.438 166.019 181.583 166.233C181.687 166.175 181.811 166.199 181.849 166.258C181.944 166.405 182.38 166.902 183.029 167.617C183.01 167.548 182.996 167.49 182.986 167.438C182.974 167.378 182.967 167.331 182.962 167.291C182.95 167.207 182.942 167.152 182.908 167.07C182.792 166.859 182.629 166.605 182.423 166.287C182.373 166.209 182.428 166.088 182.543 166.012C182.659 165.936 182.791 165.934 182.841 166.012C182.842 166.014 182.843 166.015 182.844 166.017C183.047 166.329 183.219 166.597 183.337 166.813C183.362 166.861 183.383 166.903 183.397 166.936C183.409 166.963 183.424 166.996 183.428 167.017C183.429 167.02 183.43 167.025 183.43 167.032C183.43 167.032 183.43 167.033 183.43 167.033C183.431 167.037 183.432 167.056 183.426 167.083C183.424 167.088 183.421 167.1 183.414 167.116C183.415 167.119 183.415 167.122 183.415 167.124C183.421 167.162 183.427 167.2 183.435 167.241C183.468 167.401 183.537 167.645 183.736 168.093C183.937 168.532 184.322 169.175 184.845 169.964C184.817 169.904 184.79 169.844 184.762 169.785C184.692 169.636 184.622 169.49 184.553 169.347C184.527 169.293 184.498 169.236 184.469 169.177C184.421 169.083 184.374 168.99 184.328 168.898C184.296 168.836 184.265 168.774 184.234 168.713C184.234 168.713 184.234 168.713 184.234 168.713C184.191 168.628 184.149 168.544 184.108 168.46C184.093 168.431 184.079 168.402 184.065 168.374C184.003 168.251 183.941 168.13 183.884 167.989C183.878 167.971 183.873 167.951 183.869 167.936C183.865 167.919 183.862 167.904 183.859 167.889C183.856 167.875 183.854 167.862 183.852 167.85C183.851 167.848 183.851 167.847 183.851 167.845C183.848 167.831 183.846 167.818 183.843 167.806C183.841 167.794 183.838 167.782 183.836 167.77C183.836 167.77 183.836 167.77 183.835 167.77C183.833 167.758 183.83 167.749 183.826 167.737C183.822 167.722 183.817 167.709 183.811 167.694C183.806 167.679 183.799 167.664 183.793 167.65C183.786 167.635 183.779 167.62 183.771 167.605C183.764 167.59 183.756 167.575 183.748 167.56C183.741 167.545 183.732 167.53 183.724 167.515C183.717 167.501 183.707 167.484 183.698 167.467C183.676 167.428 183.676 167.378 183.698 167.326C183.72 167.275 183.763 167.226 183.817 167.191C183.871 167.155 183.932 167.136 183.988 167.136C184.043 167.136 184.089 167.156 184.116 167.192C184.123 167.202 184.131 167.212 184.137 167.221C184.141 167.226 184.145 167.232 184.149 167.237C184.159 167.251 184.17 167.265 184.18 167.28C184.191 167.294 184.201 167.309 184.212 167.324C184.222 167.34 184.233 167.355 184.243 167.371C184.253 167.387 184.263 167.404 184.273 167.422C184.283 167.439 184.293 167.459 184.301 167.477C184.308 167.49 184.315 167.507 184.32 167.522C184.326 167.537 184.332 167.552 184.337 167.567C184.342 167.581 184.346 167.596 184.351 167.61C184.351 167.611 184.352 167.613 184.352 167.614C184.356 167.627 184.36 167.638 184.363 167.65C184.368 167.662 184.372 167.674 184.376 167.685C184.381 167.697 184.384 167.704 184.388 167.712C184.449 167.819 184.543 167.958 184.621 168.073C184.631 168.087 184.641 168.102 184.651 168.116C184.703 168.192 184.755 168.269 184.809 168.347C184.847 168.404 184.887 168.461 184.926 168.519C184.984 168.604 185.043 168.691 185.102 168.778C185.14 168.834 185.174 168.885 185.207 168.935C185.296 169.069 185.386 169.205 185.476 169.346C185.565 169.486 185.655 169.632 185.743 169.781C185.825 169.92 185.907 170.068 185.982 170.218C186.037 170.328 186.085 170.448 186.128 170.562C186.151 170.623 186.173 170.683 186.195 170.743C186.195 170.743 186.195 170.743 186.195 170.743C186.214 170.795 186.235 170.85 186.252 170.898C186.289 171.003 186.329 171.105 186.372 171.206C186.415 171.307 186.462 171.406 186.512 171.504C186.562 171.602 186.616 171.7 186.673 171.796C186.73 171.891 186.792 171.99 186.852 172.079C186.933 172.2 187.017 172.32 187.105 172.443C187.193 172.565 187.283 172.689 187.374 172.814C187.406 172.858 187.438 172.902 187.47 172.946C187.47 172.946 187.47 172.946 187.47 172.946C187.53 173.028 187.59 173.111 187.646 173.188C187.735 173.31 187.824 173.433 187.914 173.558C188.003 173.684 188.092 173.811 188.181 173.942C188.268 174.072 188.361 174.213 188.44 174.347C188.512 174.469 188.583 174.593 188.653 174.716C188.672 174.748 188.691 174.781 188.709 174.813C188.797 174.967 188.885 175.116 188.979 175.26C189.072 175.405 189.171 175.544 189.273 175.679C189.375 175.813 189.483 175.947 189.596 176.082C189.709 176.217 189.824 176.349 189.943 176.484C190.062 176.619 190.18 176.749 190.3 176.88C190.367 176.953 190.437 177.032 190.502 177.108C190.567 177.185 190.631 177.262 190.694 177.338C190.72 177.369 190.745 177.401 190.77 177.431C190.807 177.476 190.843 177.521 190.88 177.565C190.941 177.639 191.001 177.711 191.062 177.78C191.123 177.85 191.182 177.912 191.243 177.972C191.306 178.033 191.361 178.082 191.43 178.139C191.589 178.284 191.673 178.383 191.768 178.493C191.787 178.515 191.806 178.537 191.826 178.56C191.938 178.693 192.047 178.83 192.151 178.967C192.256 179.105 192.354 179.239 192.452 179.379C192.549 179.517 192.644 179.659 192.737 179.802C192.829 179.945 192.92 180.09 193.008 180.237C193.096 180.385 193.182 180.534 193.262 180.679C193.309 180.764 193.356 180.854 193.4 180.939C193.431 181 193.462 181.061 193.492 181.121C193.504 181.145 193.516 181.169 193.529 181.193C193.57 181.275 193.611 181.356 193.653 181.432C193.694 181.508 193.736 181.581 193.78 181.65C193.823 181.72 193.869 181.786 193.918 181.851C193.968 181.916 194.011 181.97 194.07 182.036C194.109 182.079 194.147 182.121 194.185 182.162C194.242 182.225 194.299 182.287 194.357 182.349C194.414 182.412 194.471 182.473 194.529 182.534C194.548 182.554 194.568 182.575 194.587 182.595C194.645 182.656 194.703 182.715 194.762 182.775C194.82 182.834 194.879 182.893 194.939 182.95C194.999 183.008 195.059 183.065 195.12 183.121C195.225 183.216 195.311 183.317 195.384 183.407C195.457 183.498 195.523 183.586 195.586 183.672C195.598 183.688 195.61 183.704 195.622 183.72C195.673 183.789 195.723 183.857 195.773 183.924C195.835 184.006 195.897 184.086 195.96 184.165C196.023 184.244 196.087 184.323 196.153 184.399C196.218 184.476 196.282 184.549 196.353 184.626C196.422 184.703 196.497 184.778 196.579 184.86C196.66 184.942 196.744 185.028 196.827 185.117C196.91 185.206 196.992 185.298 197.07 185.391C197.149 185.485 197.225 185.58 197.297 185.676C197.37 185.773 197.439 185.87 197.507 185.968C197.574 186.066 197.642 186.169 197.703 186.266C197.803 186.424 197.901 186.581 197.998 186.739C198.095 186.896 198.192 187.054 198.288 187.213C198.384 187.371 198.48 187.529 198.575 187.687C198.671 187.845 198.766 188.003 198.861 188.161C198.882 188.196 198.903 188.231 198.924 188.266C198.998 188.389 199.071 188.511 199.145 188.634C199.145 188.635 199.146 188.636 199.146 188.637C199.242 188.795 199.335 188.95 199.431 189.105C199.466 189.163 199.499 189.217 199.534 189.273C199.569 189.328 199.603 189.383 199.638 189.437C199.672 189.492 199.708 189.546 199.743 189.599C199.778 189.652 199.813 189.704 199.849 189.756C199.882 189.803 199.916 189.849 199.953 189.9C199.956 189.905 199.959 189.909 199.963 189.914C200.003 189.969 200.048 190.033 200.087 190.095C200.19 190.258 200.293 190.416 200.398 190.575C200.504 190.735 200.611 190.892 200.719 191.05C200.762 191.112 200.804 191.174 200.847 191.236C200.913 191.332 200.98 191.428 201.047 191.527C201.157 191.688 201.266 191.851 201.373 192.015C201.479 192.179 201.584 192.345 201.685 192.511C201.786 192.678 201.885 192.847 201.982 193.019C202.089 193.209 202.194 193.399 202.299 193.589C202.403 193.779 202.506 193.969 202.608 194.158C202.711 194.348 202.815 194.542 202.918 194.733C203.02 194.925 203.122 195.116 203.222 195.306C203.283 195.42 203.342 195.534 203.402 195.648C203.45 195.699 203.496 195.748 203.541 195.795C203.867 196.142 204.102 196.39 204.378 196.734C204.406 196.766 204.432 196.789 204.464 196.819C204.47 196.825 204.476 196.831 204.483 196.837C204.525 196.876 204.572 196.922 204.629 196.991C204.741 197.129 204.888 197.357 204.981 197.709C205.005 197.798 204.924 197.918 204.801 197.977C204.715 198.018 204.631 198.019 204.58 197.984C204.624 198.08 204.668 198.176 204.711 198.271C204.728 198.309 204.723 198.359 204.697 198.409C204.671 198.459 204.626 198.506 204.571 198.539C204.516 198.573 204.455 198.591 204.402 198.589C204.348 198.588 204.306 198.567 204.284 198.532C204.226 198.439 204.167 198.346 204.108 198.253C204.049 198.16 203.989 198.067 203.928 197.974C203.868 197.882 203.806 197.789 203.744 197.696C203.682 197.603 203.619 197.51 203.556 197.417C203.493 197.325 203.432 197.236 203.369 197.145C203.332 197.091 203.294 197.036 203.256 196.981C203.242 196.961 203.228 196.942 203.214 196.922C203.203 196.906 203.192 196.889 203.18 196.873C203.058 196.697 202.933 196.519 202.809 196.341C202.683 196.162 202.56 195.988 202.436 195.813C202.312 195.638 202.188 195.462 202.062 195.286C201.937 195.11 201.81 194.931 201.685 194.756C201.561 194.583 201.435 194.408 201.309 194.234C201.212 194.099 201.115 193.965 201.017 193.83C200.97 193.783 200.924 193.736 200.879 193.689C200.747 193.552 200.608 193.423 200.471 193.296C200.667 193.552 200.842 193.754 201.007 193.944C201.029 193.969 201.051 193.994 201.073 194.019C201.296 194.277 201.506 194.526 201.74 194.894C202.412 195.952 202.793 196.557 203.016 196.952C203.238 197.345 203.3 197.525 203.324 197.733C203.355 198.022 203.564 198.475 203.696 198.681C203.745 198.755 203.69 198.877 203.575 198.953C203.459 199.029 203.326 199.031 203.278 198.956C203.138 198.739 202.908 198.251 202.87 197.906C202.854 197.753 202.809 197.603 202.592 197.217C202.372 196.828 201.995 196.228 201.321 195.168C201.095 194.813 200.894 194.573 200.673 194.319C200.651 194.294 200.629 194.269 200.607 194.243C200.607 194.243 200.607 194.243 200.607 194.243C200.403 194.009 200.181 193.754 199.918 193.392C199.306 192.551 198.466 191.441 198.24 191.189C198.196 191.141 198.152 191.095 198.106 191.046C197.93 190.859 197.717 190.633 197.305 190.075C197.215 189.952 197.113 189.807 197.005 189.647C196.789 189.443 196.581 189.243 196.415 189.059C196.272 188.901 196.115 188.77 195.956 188.649C195.911 188.613 195.864 188.579 195.818 188.544C195.706 188.46 195.595 188.376 195.494 188.288C195.413 188.219 195.325 188.149 195.232 188.074C194.893 187.804 194.487 187.48 194.129 186.943C193.75 186.374 193.451 185.871 193.195 185.434C193.373 185.761 193.499 186.022 193.601 186.24C193.621 186.281 193.639 186.32 193.657 186.358C193.782 186.626 193.874 186.821 194.001 187.01C194.609 187.917 194.869 188.233 195.227 188.55C195.321 188.633 195.43 188.721 195.549 188.816C195.785 189.006 196.056 189.223 196.302 189.485C196.532 189.729 196.804 189.989 197.094 190.268C197.094 190.269 197.095 190.269 197.095 190.269C197.151 190.323 197.209 190.378 197.266 190.434C197.618 190.773 197.981 191.127 198.308 191.499C198.343 191.538 198.386 191.585 198.435 191.639C198.72 191.949 199.214 192.485 199.644 193.269C199.738 193.441 199.821 193.628 199.915 193.841C199.943 193.906 199.973 193.973 200.004 194.044C200.142 194.351 200.316 194.718 200.58 195.179C200.794 195.554 201.087 196.021 201.379 196.488C201.523 196.718 201.671 196.955 201.816 197.191C202.252 197.899 202.638 198.561 203.018 199.215C203.018 199.215 203.018 199.215 203.018 199.215C203.063 199.292 203.004 199.414 202.888 199.488C202.771 199.562 202.64 199.559 202.595 199.483C202.214 198.828 201.83 198.168 201.396 197.462C201.252 197.229 201.105 196.994 200.962 196.765C200.668 196.296 200.372 195.823 200.156 195.444C199.888 194.976 199.71 194.601 199.571 194.291C199.538 194.217 199.507 194.147 199.478 194.081C199.385 193.87 199.308 193.694 199.218 193.531C198.802 192.772 198.326 192.256 198.041 191.944C197.99 191.889 197.946 191.841 197.909 191.799C197.588 191.434 197.231 191.086 196.88 190.747C196.823 190.692 196.766 190.638 196.709 190.583C196.709 190.583 196.709 190.583 196.709 190.583C196.419 190.304 196.141 190.039 195.908 189.79C195.671 189.538 195.426 189.342 195.197 189.159C195.074 189.061 194.957 188.967 194.847 188.869C194.468 188.533 194.195 188.198 193.585 187.288ZM204.511 197.836C204.444 197.622 204.357 197.467 204.281 197.359C204.331 197.461 204.38 197.562 204.429 197.663C204.456 197.721 204.484 197.779 204.511 197.836ZM197.407 189.349C197.434 189.374 197.46 189.398 197.486 189.423C197.429 189.344 197.372 189.265 197.315 189.186C197.246 189.088 197.176 188.991 197.106 188.893C197.21 189.053 197.311 189.207 197.407 189.349ZM194.546 186.665C194.883 187.171 195.256 187.469 195.592 187.738C195.689 187.815 195.783 187.89 195.872 187.967C195.909 187.999 195.947 188.03 195.986 188.061C195.84 187.827 195.707 187.611 195.598 187.435C195.274 186.909 195.115 186.591 194.976 186.313C194.935 186.232 194.896 186.155 194.856 186.076C194.802 186.025 194.746 185.972 194.692 185.916C194.616 185.839 194.536 185.754 194.461 185.672C194.386 185.59 194.312 185.504 194.24 185.42C194.168 185.334 194.098 185.248 194.03 185.162C193.966 185.081 193.903 185 193.842 184.921C193.839 184.917 193.835 184.912 193.832 184.908C193.768 184.825 193.705 184.744 193.645 184.671C193.584 184.598 193.53 184.538 193.476 184.49C193.408 184.43 193.34 184.367 193.274 184.305C193.207 184.242 193.142 184.178 193.077 184.113C193.013 184.049 192.95 183.985 192.888 183.92C192.868 183.899 192.847 183.877 192.828 183.856C192.819 183.847 192.809 183.837 192.8 183.827C192.894 183.972 192.991 184.123 193.09 184.281C193.233 184.507 193.376 184.753 193.535 185.025C193.807 185.49 194.121 186.029 194.546 186.665ZM191.32 181.675C191.363 181.736 191.426 181.825 191.508 181.939C191.528 181.967 191.548 181.995 191.57 182.025C191.569 182.024 191.569 182.024 191.569 182.023C191.529 181.94 191.491 181.863 191.45 181.782C191.376 181.637 191.301 181.496 191.223 181.354C191.145 181.212 191.066 181.072 190.985 180.934C190.903 180.795 190.82 180.657 190.735 180.523C190.649 180.387 190.564 180.256 190.474 180.123C190.445 180.08 190.416 180.038 190.386 179.995C190.44 180.099 190.497 180.204 190.556 180.313C190.604 180.401 190.654 180.492 190.705 180.59C190.725 180.627 190.747 180.673 190.774 180.726C190.878 180.938 191.045 181.273 191.32 181.675ZM189.566 179.006C189.542 178.977 189.52 178.948 189.498 178.92C189.434 178.836 189.374 178.753 189.316 178.671C189.275 178.613 189.235 178.556 189.196 178.5C189.18 178.476 189.163 178.453 189.147 178.429C189.119 178.39 189.092 178.352 189.065 178.313C189.233 178.594 189.408 178.879 189.585 179.154C189.588 179.158 189.59 179.161 189.593 179.165C189.583 179.111 189.574 179.058 189.566 179.006ZM244.463 181.374C244.485 180.063 244.51 178.852 244.425 177.306C244.425 177.305 244.425 177.305 244.425 177.304C244.412 177.083 244.397 176.859 244.378 176.631C244.216 175.038 244.027 172.657 242.578 170.498C242.395 170.245 242.207 169.998 242.014 169.758C239.587 166.639 236.881 166.004 235.133 166.202C234.814 166.231 234.465 166.261 233.627 166.528C233.071 166.713 232.317 167.01 231.285 167.604C230.722 167.93 230.109 168.324 229.378 168.864C226.99 170.574 223.656 174.058 220.896 177.52C219.205 179.616 217.676 181.673 216.517 183.25C214.827 185.553 213.218 187.799 211.479 190.253C209.886 192.501 208.186 194.93 206.205 197.736C205.723 198.417 205.235 199.089 204.746 199.744L204.768 198.409C205.735 199.945 206.616 201.434 207.512 202.994C207.677 203.28 207.841 203.567 208.003 203.853C209.153 205.876 210.276 207.919 211.504 210.152C213.683 214.128 215.419 217.299 217.189 220.89C217.884 222.307 218.577 223.787 219.269 225.397C220.374 227.958 221.82 231.75 222.885 235.643C222.978 235.979 223.068 236.315 223.154 236.648C223.155 236.649 223.155 236.651 223.155 236.653C224.095 240.228 224.675 243.853 224.936 246.507C225.335 250.743 225.273 252.348 225.303 253.681C225.305 254.184 225.303 254.648 225.288 255.202C225.241 257.196 224.978 260.2 224.508 263.205C224.506 263.216 224.505 263.228 224.503 263.239C224.426 263.738 224.248 264.124 224.113 264.099C223.976 264.075 223.933 263.651 224.009 263.155C224.253 261.574 224.446 260.017 224.575 258.624C224.463 258.54 224.409 258.157 224.446 257.707C224.518 256.587 224.798 253.108 224.249 247.735C224.257 248.105 224.256 248.411 224.253 248.685C224.25 249.005 224.242 249.249 224.235 249.459C224.22 249.897 224.209 250.184 224.206 250.701C224.223 251.892 224.225 253.765 224.115 255.732C224.088 256.229 223.948 256.623 223.81 256.611C223.673 256.6 223.589 256.191 223.616 255.698C223.616 255.688 223.617 255.678 223.617 255.669C223.725 253.735 223.723 251.818 223.703 250.584C223.699 250.268 223.695 250 223.692 249.797C223.689 249.635 223.685 249.432 223.688 249.319C223.688 249.304 223.689 249.275 223.69 249.241C223.69 249.241 223.69 249.24 223.69 249.239C223.691 249.22 223.695 249.123 223.71 249.018C223.712 248.997 223.719 248.951 223.731 248.897C223.731 248.883 223.731 248.869 223.732 248.856C223.736 248.664 223.739 248.469 223.74 248.259C223.737 247.44 223.743 246.127 223.422 243.428C223.123 240.945 222.342 236.77 220.627 231.754C220.73 232.09 220.838 232.444 220.939 232.786C221.193 233.645 221.438 234.523 221.665 235.393C221.751 235.724 221.835 236.057 221.919 236.397C222.054 236.946 222.179 237.48 222.301 238.033C222.383 238.406 222.462 238.778 222.537 239.147C222.538 239.148 222.538 239.149 222.538 239.15C222.641 239.657 222.742 240.187 222.834 240.707C222.866 240.89 222.897 241.07 222.927 241.248C223.047 241.965 223.154 242.671 223.248 243.484C223.258 243.584 223.268 243.692 223.274 243.773C223.281 243.86 223.288 243.944 223.293 244.023C223.298 244.093 223.302 244.159 223.306 244.223C223.306 244.231 223.307 244.24 223.308 244.249C223.312 244.32 223.316 244.388 223.32 244.453C223.324 244.518 223.328 244.581 223.332 244.643C223.332 244.643 223.332 244.644 223.332 244.645C223.337 244.709 223.34 244.758 223.345 244.826C223.352 244.912 223.358 244.984 223.366 245.074C223.373 245.161 223.381 245.252 223.39 245.343C223.398 245.435 223.407 245.527 223.416 245.622C223.425 245.716 223.434 245.812 223.443 245.908C223.452 246.004 223.461 246.102 223.47 246.2C223.479 246.298 223.487 246.397 223.496 246.496C223.516 246.724 223.509 246.947 223.476 247.114C223.444 247.28 223.39 247.375 223.325 247.379C223.261 247.384 223.191 247.297 223.131 247.139C223.07 246.98 223.022 246.763 222.997 246.538C222.99 246.476 222.983 246.414 222.976 246.352C222.972 246.315 222.968 246.278 222.963 246.241C222.952 246.141 222.94 246.04 222.928 245.938C222.916 245.836 222.904 245.734 222.891 245.63C222.879 245.525 222.866 245.42 222.853 245.312C222.84 245.205 222.827 245.095 222.815 244.985C222.803 244.878 222.789 244.755 222.777 244.645C222.769 244.565 222.759 244.465 222.751 244.382C222.742 244.296 222.734 244.211 222.726 244.128C222.718 244.046 222.711 243.966 222.704 243.889C222.703 243.881 222.702 243.873 222.701 243.865C222.695 243.797 222.689 243.732 222.683 243.67C222.676 243.601 222.669 243.535 222.661 243.473C222.654 243.405 222.648 243.363 222.642 243.313C222.547 242.656 222.4 241.821 222.247 241.051C222.228 240.953 222.209 240.856 222.189 240.76C222.086 240.25 221.973 239.732 221.859 239.232C221.774 238.865 221.686 238.496 221.594 238.124C221.459 237.58 221.321 237.047 221.172 236.502C221.079 236.162 220.988 235.837 220.893 235.506C220.642 234.636 220.375 233.765 220.095 232.899C219.809 232.016 219.523 231.178 219.211 230.295C218.911 229.449 218.574 228.533 218.256 227.686C218.022 227.062 217.773 226.393 217.551 225.801C217.431 225.481 217.311 225.167 217.191 224.855C217.19 224.854 217.19 224.853 217.19 224.852C217.084 224.578 216.978 224.306 216.871 224.036C216.646 223.469 216.419 222.915 216.179 222.354C215.936 221.788 215.7 221.253 215.446 220.701C215.197 220.159 214.922 219.585 214.663 219.056C214.397 218.515 214.126 217.981 213.832 217.416C213.451 216.685 213.069 215.974 212.657 215.224C212.25 214.484 211.847 213.769 211.421 213.025C211.273 212.766 211.12 212.501 210.976 212.252C210.975 212.251 210.975 212.25 210.974 212.249C210.703 211.781 210.425 211.308 210.143 210.831C209.701 210.084 209.275 209.375 208.828 208.64C208.38 207.902 207.93 207.17 207.478 206.439C207.026 205.708 206.541 204.93 206.081 204.188C205.666 203.517 205.235 202.825 204.813 202.156C204.704 201.983 204.595 201.81 204.485 201.636C204.03 200.916 203.575 200.209 203.113 199.505C202.953 199.254 202.951 198.836 203.128 198.596C203.196 198.5 203.265 198.403 203.333 198.307C203.877 197.543 204.419 196.761 204.952 195.979C205.487 195.194 206.021 194.395 206.557 193.588C207.097 192.774 207.623 191.973 208.162 191.151C208.696 190.336 209.23 189.517 209.774 188.687C210.076 188.225 210.4 187.736 210.707 187.275C211.017 186.81 211.329 186.346 211.637 185.892C211.762 185.708 211.886 185.525 212.01 185.343C212.19 185.078 212.372 184.813 212.549 184.554C212.848 184.116 213.139 183.691 213.421 183.277C213.706 182.86 213.981 182.456 214.243 182.066C214.514 181.663 214.736 181.328 215.002 180.922C215.658 179.948 216.082 179.361 216.56 178.704C216.654 178.575 216.75 178.444 216.85 178.308C217.419 177.533 218.017 176.748 218.605 176C219.214 175.228 219.803 174.504 220.44 173.753C221.054 173.029 221.713 172.285 222.363 171.588C223.035 170.868 223.693 170.198 224.416 169.509C225.112 168.846 225.88 168.165 226.622 167.567C227.069 167.206 227.532 166.856 227.989 166.532C228.324 166.295 228.655 166.073 228.98 165.867C229.112 165.784 229.246 165.7 229.386 165.616C229.866 165.326 230.311 165.081 230.785 164.842C231.263 164.603 231.7 164.407 232.179 164.218C232.658 164.031 233.101 163.88 233.6 163.742C234.111 163.604 234.518 163.514 235.089 163.432C235.456 163.381 235.814 163.352 236.18 163.343C236.726 163.331 237.278 163.368 237.819 163.455C238.362 163.542 238.9 163.683 239.406 163.862C239.571 163.92 239.745 163.987 239.909 164.055C240.42 164.271 240.865 164.5 241.33 164.783C241.786 165.062 242.18 165.34 242.593 165.666C243.012 166 243.346 166.294 243.721 166.653C244.363 167.277 244.831 167.832 245.286 168.423C245.298 168.44 245.311 168.456 245.323 168.473C245.766 169.056 246.117 169.663 246.417 170.293C246.478 170.421 246.523 170.52 246.573 170.634C246.785 171.114 246.968 171.609 247.13 172.116C247.339 172.778 247.469 173.287 247.606 173.899C247.735 174.485 247.85 175.139 247.932 175.68C248.018 176.254 248.088 176.818 248.15 177.444C248.211 178.086 248.257 178.62 248.296 179.294C248.335 179.935 248.359 180.703 248.366 181.346C248.374 182.021 248.366 182.722 248.341 183.432C248.315 184.169 248.279 184.808 248.229 185.498C248.18 186.18 248.116 186.88 248.043 187.565C247.974 188.221 247.891 188.907 247.804 189.558C247.661 190.623 247.504 191.655 247.335 192.683C247.167 193.706 246.976 194.779 246.786 195.775C246.594 196.787 246.386 197.825 246.171 198.846C245.96 199.849 245.737 200.861 245.504 201.88C245.453 202.106 245.401 202.332 245.349 202.558C245.168 203.335 244.982 204.114 244.792 204.895C244.791 204.901 244.789 204.906 244.788 204.911C244.543 205.917 244.294 206.909 244.043 207.891C243.95 208.254 243.86 208.603 243.768 208.958C243.676 209.314 243.585 209.663 243.492 210.016C243.4 210.369 243.307 210.724 243.218 211.065C243.127 211.411 243.038 211.75 242.949 212.091C242.867 212.405 242.786 212.716 242.697 213.057C242.689 213.088 242.681 213.119 242.672 213.15C242.575 213.523 242.461 213.947 242.352 214.34C242.062 215.381 241.778 216.388 241.485 217.417C241.193 218.446 240.897 219.472 240.596 220.506C240.479 220.909 240.36 221.314 240.241 221.719C240.055 222.349 239.869 222.974 239.677 223.612C239.362 224.657 239.043 225.699 238.716 226.74C238.39 227.779 238.051 228.839 237.712 229.873C237.375 230.9 237.02 231.959 236.668 232.989C236.276 234.136 235.885 235.26 235.478 236.417C235.073 237.567 234.681 238.665 234.262 239.827C233.844 240.985 233.455 242.049 233.022 243.224C232.594 244.385 232.202 245.429 231.757 246.613C231.499 247.298 231.244 247.969 230.993 248.625C230.883 248.966 230.758 249.343 230.647 249.681C229.831 252.162 229.254 253.887 228.395 256.285C228.318 256.507 228.26 256.686 228.19 256.901C228.176 256.942 228.162 256.985 228.148 257.029C228.066 257.283 227.929 257.684 227.763 258.144C227.434 259.059 226.905 260.433 226.074 262.238C225.888 262.633 225.629 262.925 225.548 262.764C225.517 262.713 225.521 262.59 225.529 262.48C225.536 262.375 225.562 262.244 225.606 262.1C225.551 262.228 225.499 262.351 225.448 262.469C225.386 262.615 225.318 262.777 225.259 262.916C225.198 263.058 225.142 263.191 225.089 263.313C225.032 263.446 225.001 263.514 224.918 263.71C224.804 263.978 224.722 264.099 224.617 264.23C224.471 264.461 224.441 264.364 224.376 264.354C224.312 264.341 224.272 264.278 224.325 264.029C224.33 263.896 224.388 263.687 224.501 263.405C224.692 262.933 224.978 262.214 225.174 261.717C225.285 261.436 225.407 261.124 225.529 260.811C225.631 260.551 225.738 260.277 225.849 259.989C225.96 259.702 226.076 259.402 226.196 259.089C226.308 258.799 226.406 258.541 226.516 258.253C226.725 257.705 226.98 257.03 227.178 256.502C227.388 255.943 227.602 255.369 227.826 254.762C227.967 254.382 228.085 254.064 228.211 253.721C228.257 253.595 228.303 253.471 228.349 253.346C228.386 253.243 228.424 253.14 228.463 253.033C228.887 251.876 229.283 250.782 229.692 249.64C230.119 248.448 230.489 247.402 230.899 246.235C231.315 245.049 231.681 243.994 232.082 242.827C232.487 241.645 232.85 240.577 233.241 239.413C233.633 238.245 233.997 237.147 234.375 235.994C234.666 235.104 234.951 234.223 235.229 233.354C235.33 233.007 235.431 232.662 235.53 232.321C235.82 231.325 236.097 230.321 236.362 229.346C235.839 231.055 235.406 232.489 235.009 233.798C234.955 233.974 234.902 234.149 234.849 234.323C234.289 236.15 233.765 237.824 232.949 240.171C230.663 246.717 229.243 250.489 228.34 252.844C227.468 255.104 227.007 256.183 226.571 257.066C225.936 258.367 224.873 260.912 224.384 262.144C224.169 262.689 223.94 262.96 223.811 262.91C223.684 262.855 223.706 262.497 223.922 261.952C224.447 260.628 225.57 257.929 226.336 256.347C226.644 255.734 227.041 254.819 227.899 252.595C228.785 250.281 230.193 246.544 232.481 239.992C233.267 237.73 233.77 236.126 234.326 234.315C234.378 234.143 234.431 233.969 234.485 233.794C234.485 233.793 234.485 233.792 234.486 233.791C234.977 232.174 235.52 230.373 236.254 227.991C237.976 222.477 240.022 214.99 240.443 213.194C240.528 212.842 240.609 212.502 240.694 212.143C241.012 210.771 241.418 209.099 242.287 205.361C242.477 204.537 242.699 203.576 242.932 202.537C243.223 200.948 243.49 199.39 243.717 198.073C243.921 196.897 244.064 195.822 244.182 194.796C244.216 194.501 244.249 194.204 244.282 193.894C244.362 193.155 244.434 192.424 244.506 191.724C244.563 191.163 244.612 190.597 244.665 189.95C244.839 187.651 245.016 184.997 245.106 181.454C245.183 177.75 244.883 174.576 244.006 172.204C244.639 173.994 244.788 175.518 244.891 176.733C244.909 176.971 244.923 177.202 244.935 177.428C245.012 178.992 244.983 180.153 244.964 181.374C244.761 187.252 244.309 189.558 244.084 192.049C244.012 192.712 243.932 193.455 243.838 194.263C243.662 195.803 243.409 197.685 243.07 199.581C242.747 201.392 242.381 203.393 241.953 205.54C241.953 205.541 241.952 205.542 241.952 205.543C241.868 205.966 241.784 206.382 241.697 206.805C241.168 209.392 240.56 212.112 239.897 214.746C239.827 215.026 239.743 215.363 239.646 215.75C239.088 217.981 238.075 221.907 236.529 226.587C236.187 227.624 235.812 228.691 235.384 229.894C235.254 230.259 235.116 230.643 234.972 231.047C234.352 232.781 233.598 234.886 232.619 237.661C231.798 239.99 230.809 242.797 229.759 245.698C229.232 247.154 228.71 248.578 228.169 250.032C226.56 254.349 225.011 258.322 223.422 262.238C223.422 262.239 223.422 262.24 223.422 262.24C223.324 262.481 223.222 262.655 223.13 262.76C223.034 262.874 222.919 262.991 222.863 262.946C222.795 262.929 222.814 262.714 222.815 262.595C222.827 262.446 222.881 262.24 222.98 261.996C224.566 258.084 226.108 254.129 227.71 249.828C228.243 248.396 228.76 246.986 229.285 245.536C230.34 242.624 231.341 239.778 232.168 237.432C233.164 234.608 233.928 232.472 234.557 230.712C234.71 230.283 234.849 229.896 234.982 229.521C235.405 228.331 235.756 227.33 236.081 226.347C237.574 221.823 238.55 218.049 239.111 215.814C239.211 215.417 239.298 215.068 239.373 214.772C240.022 212.195 240.622 209.524 241.153 206.941C241.24 206.522 241.322 206.113 241.406 205.695C241.406 205.694 241.406 205.694 241.407 205.693C241.838 203.544 242.21 201.522 242.542 199.676C242.87 197.848 243.098 196.166 243.275 194.67C243.369 193.876 243.463 193.045 243.548 192.276C243.794 189.657 244.262 187.214 244.463 181.374ZM225.965 261.245C226.437 260.205 226.847 259.173 227.076 258.561C226.859 259.091 226.6 259.723 226.364 260.29C226.225 260.626 226.12 260.873 225.965 261.245ZM243.452 202.505C243.417 202.695 243.382 202.887 243.347 203.079C243.463 202.552 243.578 202.025 243.693 201.485C243.833 200.826 243.97 200.172 244.101 199.522C243.885 200.551 243.66 201.574 243.452 202.505ZM245.607 181.456C245.521 184.829 245.369 187.295 245.208 189.561C245.158 190.222 245.102 190.87 245.042 191.478C245.016 191.734 244.991 191.991 244.966 192.252C245.208 190.777 245.413 189.336 245.552 188.215C245.973 184.81 246.095 182.839 246.165 181.165C246.184 180.705 246.195 180.172 246.196 179.691C246.173 179.286 246.144 178.873 246.11 178.466C246.065 177.925 245.995 177.22 245.916 176.634C245.835 176.026 245.747 175.482 245.622 174.847C245.499 174.234 245.362 173.672 245.199 173.123C245.032 172.56 244.843 172.038 244.638 171.57C244.627 171.544 244.615 171.517 244.603 171.49C244.383 170.994 244.102 170.481 243.835 170.095C243.75 169.971 243.667 169.858 243.586 169.754C243.377 169.485 243.189 169.262 243.014 169.066C242.699 168.717 242.37 168.377 242.012 168.043C241.662 167.717 241.319 167.428 240.932 167.14C240.558 166.863 240.184 166.622 239.777 166.402C239.649 166.333 239.514 166.265 239.387 166.205C239.328 166.177 239.271 166.151 239.21 166.124C239.983 166.499 240.746 167.038 241.464 167.705C242.126 168.322 242.747 169.037 243.378 169.908C243.665 170.307 243.934 170.77 244.179 171.308C245.324 173.859 245.687 177.282 245.607 181.456ZM227.005 170.102C227.317 169.821 227.738 169.442 228.35 168.942C228.491 168.827 228.64 168.707 228.796 168.585C228.792 168.588 228.789 168.591 228.785 168.594C228.393 168.88 228.009 169.18 227.634 169.486C226.954 170.043 226.302 170.625 225.666 171.228C225.019 171.844 224.411 172.459 223.8 173.106C223.202 173.74 222.595 174.415 222.026 175.074C221.436 175.755 220.885 176.417 220.322 177.115C220.142 177.339 219.967 177.559 219.792 177.779C220.188 177.303 220.624 176.78 221.069 176.26C221.422 175.848 221.812 175.399 222.214 174.95C222.368 174.778 222.554 174.573 222.774 174.334C223.67 173.373 225.043 171.89 227.005 170.102ZM215.624 183.515C215.505 183.684 215.387 183.853 215.27 184.019C214.934 184.496 214.613 184.95 214.294 185.403C214.071 185.72 213.849 186.035 213.631 186.345C213.54 186.475 213.449 186.606 213.359 186.735C213.208 186.951 213.058 187.166 212.909 187.38C213.97 185.898 215.02 184.443 216.118 182.948C216.132 182.928 216.147 182.909 216.161 182.889C215.978 183.101 215.799 183.31 215.624 183.515Z" fill="white"/>
</g>
<defs>
<linearGradient id="paint0_linear_1_2" x1="150.538" y1="36" x2="150.538" y2="264" gradientUnits="userSpaceOnUse">
<stop stop-color="#B2D7F5"/>
<stop offset="1" stop-color="#193043"/>
</linearGradient>
<clipPath id="clip0_1_2">
<rect width="300" height="300" fill="white"/>
</clipPath>
</defs>
</svg>
